solid OpenSCAD_Model
  facet normal 0.659345 0.75184 -0
    outer loop
      vertex 3.18198 3.18198 2.5
      vertex 2.73943 3.57009 3.5
      vertex 3.18198 3.18198 3.5
    endloop
  endfacet
  facet normal 0.659345 0.75184 0
    outer loop
      vertex 2.73943 3.57009 3.5
      vertex 3.18198 3.18198 2.5
      vertex 2.73943 3.57009 2.5
    endloop
  endfacet
  facet normal -0.321439 -0.94693 0
    outer loop
      vertex -1.72207 -4.15746 2.5
      vertex -1.16469 -4.34667 3.5
      vertex -1.72207 -4.15746 3.5
    endloop
  endfacet
  facet normal -0.321439 -0.94693 -0
    outer loop
      vertex -1.16469 -4.34667 3.5
      vertex -1.72207 -4.15746 2.5
      vertex -1.16469 -4.34667 2.5
    endloop
  endfacet
  facet normal -0.321439 0.94693 0
    outer loop
      vertex -1.16469 4.34667 2.5
      vertex -1.72207 4.15746 3.5
      vertex -1.16469 4.34667 3.5
    endloop
  endfacet
  facet normal -0.321439 0.94693 0
    outer loop
      vertex -1.72207 4.15746 3.5
      vertex -1.16469 4.34667 2.5
      vertex -1.72207 4.15746 2.5
    endloop
  endfacet
  facet normal -0.896873 0.442289 0
    outer loop
      vertex -4.15746 1.72207 2.5
      vertex -3.89711 2.25 3.5
      vertex -3.89711 2.25 2.5
    endloop
  endfacet
  facet normal -0.896873 0.442289 0
    outer loop
      vertex -3.89711 2.25 3.5
      vertex -4.15746 1.72207 2.5
      vertex -4.15746 1.72207 3.5
    endloop
  endfacet
  facet normal 0.94693 0.321439 0
    outer loop
      vertex 4.34667 1.16469 3.5
      vertex 4.15746 1.72207 2.5
      vertex 4.15746 1.72207 3.5
    endloop
  endfacet
  facet normal 0.94693 0.321439 0
    outer loop
      vertex 4.15746 1.72207 2.5
      vertex 4.34667 1.16469 3.5
      vertex 4.34667 1.16469 2.5
    endloop
  endfacet
  facet normal 0.896873 0.442289 0
    outer loop
      vertex 4.15746 1.72207 3.5
      vertex 3.89711 2.25 2.5
      vertex 3.89711 2.25 3.5
    endloop
  endfacet
  facet normal 0.896873 0.442289 0
    outer loop
      vertex 3.89711 2.25 2.5
      vertex 4.15746 1.72207 3.5
      vertex 4.15746 1.72207 2.5
    endloop
  endfacet
  facet normal 0.442288 0.896873 -0
    outer loop
      vertex 2.25 3.89711 2.5
      vertex 1.72207 4.15746 3.5
      vertex 2.25 3.89711 3.5
    endloop
  endfacet
  facet normal 0.442288 0.896873 0
    outer loop
      vertex 1.72207 4.15746 3.5
      vertex 2.25 3.89711 2.5
      vertex 1.72207 4.15746 2.5
    endloop
  endfacet
  facet normal 0.321439 0.94693 -0
    outer loop
      vertex 1.72207 4.15746 2.5
      vertex 1.16469 4.34667 3.5
      vertex 1.72207 4.15746 3.5
    endloop
  endfacet
  facet normal 0.321439 0.94693 0
    outer loop
      vertex 1.16469 4.34667 3.5
      vertex 1.72207 4.15746 2.5
      vertex 1.16469 4.34667 2.5
    endloop
  endfacet
  facet normal 0.19509 0.980785 -0
    outer loop
      vertex 1.16469 4.34667 2.5
      vertex 0.587367 4.4615 3.5
      vertex 1.16469 4.34667 3.5
    endloop
  endfacet
  facet normal 0.19509 0.980785 0
    outer loop
      vertex 0.587367 4.4615 3.5
      vertex 1.16469 4.34667 2.5
      vertex 0.587367 4.4615 2.5
    endloop
  endfacet
  facet normal -0.980785 0.19509 0
    outer loop
      vertex -4.4615 0.587367 2.5
      vertex -4.34667 1.16469 3.5
      vertex -4.34667 1.16469 2.5
    endloop
  endfacet
  facet normal -0.980785 0.19509 0
    outer loop
      vertex -4.34667 1.16469 3.5
      vertex -4.4615 0.587367 2.5
      vertex -4.4615 0.587367 3.5
    endloop
  endfacet
  facet normal -0.75184 0.659345 0
    outer loop
      vertex -3.57009 2.73943 2.5
      vertex -3.18198 3.18198 3.5
      vertex -3.18198 3.18198 2.5
    endloop
  endfacet
  facet normal -0.75184 0.659345 0
    outer loop
      vertex -3.18198 3.18198 3.5
      vertex -3.57009 2.73943 2.5
      vertex -3.57009 2.73943 3.5
    endloop
  endfacet
  facet normal -0.442289 0.896873 0
    outer loop
      vertex -1.72207 4.15746 2.5
      vertex -2.25 3.89711 3.5
      vertex -1.72207 4.15746 3.5
    endloop
  endfacet
  facet normal -0.442289 0.896873 0
    outer loop
      vertex -2.25 3.89711 3.5
      vertex -1.72207 4.15746 2.5
      vertex -2.25 3.89711 2.5
    endloop
  endfacet
  facet normal -0.19509 0.980785 0
    outer loop
      vertex -0.587367 4.4615 2.5
      vertex -1.16469 4.34667 3.5
      vertex -0.587367 4.4615 3.5
    endloop
  endfacet
  facet normal -0.19509 0.980785 0
    outer loop
      vertex -1.16469 4.34667 3.5
      vertex -0.587367 4.4615 2.5
      vertex -1.16469 4.34667 2.5
    endloop
  endfacet
  facet normal 0.997859 -0.0654045 0
    outer loop
      vertex 4.4615 -0.587367 3.5
      vertex 4.5 0 2.5
      vertex 4.5 0 3.5
    endloop
  endfacet
  facet normal 0.997859 -0.0654045 0
    outer loop
      vertex 4.5 0 2.5
      vertex 4.4615 -0.587367 3.5
      vertex 4.4615 -0.587367 2.5
    endloop
  endfacet
  facet normal 0.321439 -0.94693 0
    outer loop
      vertex 1.16469 -4.34667 2.5
      vertex 1.72207 -4.15746 3.5
      vertex 1.16469 -4.34667 3.5
    endloop
  endfacet
  facet normal 0.321439 -0.94693 0
    outer loop
      vertex 1.72207 -4.15746 3.5
      vertex 1.16469 -4.34667 2.5
      vertex 1.72207 -4.15746 2.5
    endloop
  endfacet
  facet normal 0.442288 -0.896873 0
    outer loop
      vertex 1.72207 -4.15746 2.5
      vertex 2.25 -3.89711 3.5
      vertex 1.72207 -4.15746 3.5
    endloop
  endfacet
  facet normal 0.442288 -0.896873 0
    outer loop
      vertex 2.25 -3.89711 3.5
      vertex 1.72207 -4.15746 2.5
      vertex 2.25 -3.89711 2.5
    endloop
  endfacet
  facet normal 0.75184 -0.659345 0
    outer loop
      vertex 3.18198 -3.18198 3.5
      vertex 3.57009 -2.73943 2.5
      vertex 3.57009 -2.73943 3.5
    endloop
  endfacet
  facet normal 0.75184 -0.659345 0
    outer loop
      vertex 3.57009 -2.73943 2.5
      vertex 3.18198 -3.18198 3.5
      vertex 3.18198 -3.18198 2.5
    endloop
  endfacet
  facet normal -0.19509 -0.980785 0
    outer loop
      vertex -1.16469 -4.34667 2.5
      vertex -0.587367 -4.4615 3.5
      vertex -1.16469 -4.34667 3.5
    endloop
  endfacet
  facet normal -0.19509 -0.980785 -0
    outer loop
      vertex -0.587367 -4.4615 3.5
      vertex -1.16469 -4.34667 2.5
      vertex -0.587367 -4.4615 2.5
    endloop
  endfacet
  facet normal -0.659345 -0.75184 0
    outer loop
      vertex -3.18198 -3.18198 2.5
      vertex -2.73943 -3.57009 3.5
      vertex -3.18198 -3.18198 3.5
    endloop
  endfacet
  facet normal -0.659345 -0.75184 -0
    outer loop
      vertex -2.73943 -3.57009 3.5
      vertex -3.18198 -3.18198 2.5
      vertex -2.73943 -3.57009 2.5
    endloop
  endfacet
  facet normal -0.896873 -0.442289 0
    outer loop
      vertex -3.89711 -2.25 2.5
      vertex -4.15746 -1.72207 3.5
      vertex -4.15746 -1.72207 2.5
    endloop
  endfacet
  facet normal -0.896873 -0.442289 0
    outer loop
      vertex -4.15746 -1.72207 3.5
      vertex -3.89711 -2.25 2.5
      vertex -3.89711 -2.25 3.5
    endloop
  endfacet
  facet normal 0 0 -1
    outer loop
      vertex 4 0 2.5
      vertex 4.5 0 2.5
      vertex 4.4615 -0.587367 2.5
    endloop
  endfacet
  facet normal 0 0 -1
    outer loop
      vertex 3.96578 -0.522104 2.5
      vertex 4.4615 -0.587367 2.5
      vertex 4.34667 -1.16469 2.5
    endloop
  endfacet
  facet normal 0 0 -1
    outer loop
      vertex 4.5 0 2.5
      vertex 4 0 2.5
      vertex 4.4615 0.587367 2.5
    endloop
  endfacet
  facet normal 0 0 -1
    outer loop
      vertex 3.8637 -1.03528 2.5
      vertex 4.34667 -1.16469 2.5
      vertex 4.15746 -1.72207 2.5
    endloop
  endfacet
  facet normal 0 0 -1
    outer loop
      vertex 3.96578 0.522104 2.5
      vertex 4.4615 0.587367 2.5
      vertex 4 0 2.5
    endloop
  endfacet
  facet normal -0 0 -1
    outer loop
      vertex 4.4615 0.587367 2.5
      vertex 3.96578 0.522104 2.5
      vertex 4.34667 1.16469 2.5
    endloop
  endfacet
  facet normal 0 0 -1
    outer loop
      vertex 4.4615 -0.587367 2.5
      vertex 3.96578 -0.522104 2.5
      vertex 4 0 2.5
    endloop
  endfacet
  facet normal 0 0 -1
    outer loop
      vertex 3.69552 -1.53073 2.5
      vertex 4.15746 -1.72207 2.5
      vertex 3.89711 -2.25 2.5
    endloop
  endfacet
  facet normal 0 0 -1
    outer loop
      vertex 4.34667 -1.16469 2.5
      vertex 3.8637 -1.03528 2.5
      vertex 3.96578 -0.522104 2.5
    endloop
  endfacet
  facet normal 0 0 -1
    outer loop
      vertex 4.15746 -1.72207 2.5
      vertex 3.69552 -1.53073 2.5
      vertex 3.8637 -1.03528 2.5
    endloop
  endfacet
  facet normal 0 0 -1
    outer loop
      vertex 3.4641 -2 2.5
      vertex 3.89711 -2.25 2.5
      vertex 3.57009 -2.73943 2.5
    endloop
  endfacet
  facet normal 0 0 -1
    outer loop
      vertex 3.89711 -2.25 2.5
      vertex 3.4641 -2 2.5
      vertex 3.69552 -1.53073 2.5
    endloop
  endfacet
  facet normal 0 0 -1
    outer loop
      vertex 3.17341 -2.43505 2.5
      vertex 3.57009 -2.73943 2.5
      vertex 3.18198 -3.18198 2.5
    endloop
  endfacet
  facet normal 0 0 -1
    outer loop
      vertex 3.57009 -2.73943 2.5
      vertex 3.17341 -2.43505 2.5
      vertex 3.4641 -2 2.5
    endloop
  endfacet
  facet normal 0 0 -1
    outer loop
      vertex 3.18198 -3.18198 2.5
      vertex 2.82843 -2.82843 2.5
      vertex 3.17341 -2.43505 2.5
    endloop
  endfacet
  facet normal 0 0 -1
    outer loop
      vertex 2.73943 -3.57009 2.5
      vertex 2.82843 -2.82843 2.5
      vertex 3.18198 -3.18198 2.5
    endloop
  endfacet
  facet normal 0 0 -1
    outer loop
      vertex 2.73943 -3.57009 2.5
      vertex 2.43505 -3.17341 2.5
      vertex 2.82843 -2.82843 2.5
    endloop
  endfacet
  facet normal 0 0 -1
    outer loop
      vertex 2.25 -3.89711 2.5
      vertex 2.43505 -3.17341 2.5
      vertex 2.73943 -3.57009 2.5
    endloop
  endfacet
  facet normal 0 0 -1
    outer loop
      vertex 2.25 -3.89711 2.5
      vertex 2 -3.4641 2.5
      vertex 2.43505 -3.17341 2.5
    endloop
  endfacet
  facet normal 0 0 -1
    outer loop
      vertex 1.72207 -4.15746 2.5
      vertex 2 -3.4641 2.5
      vertex 2.25 -3.89711 2.5
    endloop
  endfacet
  facet normal 0 0 -1
    outer loop
      vertex 1.72207 -4.15746 2.5
      vertex 1.53073 -3.69552 2.5
      vertex 2 -3.4641 2.5
    endloop
  endfacet
  facet normal 0 0 -1
    outer loop
      vertex 1.16469 -4.34667 2.5
      vertex 1.53073 -3.69552 2.5
      vertex 1.72207 -4.15746 2.5
    endloop
  endfacet
  facet normal 0 0 -1
    outer loop
      vertex 1.16469 -4.34667 2.5
      vertex 1.03528 -3.8637 2.5
      vertex 1.53073 -3.69552 2.5
    endloop
  endfacet
  facet normal 0 0 -1
    outer loop
      vertex 0.587367 -4.4615 2.5
      vertex 1.03528 -3.8637 2.5
      vertex 1.16469 -4.34667 2.5
    endloop
  endfacet
  facet normal 0 0 -1
    outer loop
      vertex 0.587367 -4.4615 2.5
      vertex 0.522104 -3.96578 2.5
      vertex 1.03528 -3.8637 2.5
    endloop
  endfacet
  facet normal 0 0 -1
    outer loop
      vertex 0 -4.5 2.5
      vertex 0.522104 -3.96578 2.5
      vertex 0.587367 -4.4615 2.5
    endloop
  endfacet
  facet normal 0 0 -1
    outer loop
      vertex 0 -4.5 2.5
      vertex 0 -4 2.5
      vertex 0.522104 -3.96578 2.5
    endloop
  endfacet
  facet normal 0 0 -1
    outer loop
      vertex 0 -4.5 2.5
      vertex -0.522104 -3.96578 2.5
      vertex 0 -4 2.5
    endloop
  endfacet
  facet normal 0 0 -1
    outer loop
      vertex -0.587367 -4.4615 2.5
      vertex -0.522104 -3.96578 2.5
      vertex 0 -4.5 2.5
    endloop
  endfacet
  facet normal 0 0 -1
    outer loop
      vertex -0.587367 -4.4615 2.5
      vertex -1.03528 -3.8637 2.5
      vertex -0.522104 -3.96578 2.5
    endloop
  endfacet
  facet normal 0 0 -1
    outer loop
      vertex -1.16469 -4.34667 2.5
      vertex -1.03528 -3.8637 2.5
      vertex -0.587367 -4.4615 2.5
    endloop
  endfacet
  facet normal 0 0 -1
    outer loop
      vertex -1.16469 -4.34667 2.5
      vertex -1.53073 -3.69552 2.5
      vertex -1.03528 -3.8637 2.5
    endloop
  endfacet
  facet normal 0 0 -1
    outer loop
      vertex -1.72207 -4.15746 2.5
      vertex -1.53073 -3.69552 2.5
      vertex -1.16469 -4.34667 2.5
    endloop
  endfacet
  facet normal 0 0 -1
    outer loop
      vertex -1.72207 -4.15746 2.5
      vertex -2 -3.4641 2.5
      vertex -1.53073 -3.69552 2.5
    endloop
  endfacet
  facet normal 0 0 -1
    outer loop
      vertex -2.25 -3.89711 2.5
      vertex -2 -3.4641 2.5
      vertex -1.72207 -4.15746 2.5
    endloop
  endfacet
  facet normal 0 0 -1
    outer loop
      vertex -2.25 -3.89711 2.5
      vertex -2.43505 -3.17341 2.5
      vertex -2 -3.4641 2.5
    endloop
  endfacet
  facet normal 0 0 -1
    outer loop
      vertex -2.73943 -3.57009 2.5
      vertex -2.43505 -3.17341 2.5
      vertex -2.25 -3.89711 2.5
    endloop
  endfacet
  facet normal 0 0 -1
    outer loop
      vertex -2.73943 -3.57009 2.5
      vertex -2.82843 -2.82843 2.5
      vertex -2.43505 -3.17341 2.5
    endloop
  endfacet
  facet normal 0 0 -1
    outer loop
      vertex -3.18198 -3.18198 2.5
      vertex -2.82843 -2.82843 2.5
      vertex -2.73943 -3.57009 2.5
    endloop
  endfacet
  facet normal -0 0 -1
    outer loop
      vertex -2.82843 -2.82843 2.5
      vertex -3.18198 -3.18198 2.5
      vertex -3.17341 -2.43505 2.5
    endloop
  endfacet
  facet normal 0 0 -1
    outer loop
      vertex -3.57009 -2.73943 2.5
      vertex -3.17341 -2.43505 2.5
      vertex -3.18198 -3.18198 2.5
    endloop
  endfacet
  facet normal -0 0 -1
    outer loop
      vertex -3.17341 -2.43505 2.5
      vertex -3.57009 -2.73943 2.5
      vertex -3.4641 -2 2.5
    endloop
  endfacet
  facet normal 0 0 -1
    outer loop
      vertex -3.89711 -2.25 2.5
      vertex -3.4641 -2 2.5
      vertex -3.57009 -2.73943 2.5
    endloop
  endfacet
  facet normal -0 0 -1
    outer loop
      vertex -3.4641 -2 2.5
      vertex -3.89711 -2.25 2.5
      vertex -3.69552 -1.53073 2.5
    endloop
  endfacet
  facet normal 0 0 -1
    outer loop
      vertex -4.15746 -1.72207 2.5
      vertex -3.69552 -1.53073 2.5
      vertex -3.89711 -2.25 2.5
    endloop
  endfacet
  facet normal -0 0 -1
    outer loop
      vertex -3.69552 -1.53073 2.5
      vertex -4.15746 -1.72207 2.5
      vertex -3.8637 -1.03528 2.5
    endloop
  endfacet
  facet normal 0 0 -1
    outer loop
      vertex -4.34667 -1.16469 2.5
      vertex -3.8637 -1.03528 2.5
      vertex -4.15746 -1.72207 2.5
    endloop
  endfacet
  facet normal -0 0 -1
    outer loop
      vertex -3.8637 -1.03528 2.5
      vertex -4.34667 -1.16469 2.5
      vertex -3.96578 -0.522104 2.5
    endloop
  endfacet
  facet normal 0 0 -1
    outer loop
      vertex 3.8637 1.03528 2.5
      vertex 4.34667 1.16469 2.5
      vertex 3.96578 0.522104 2.5
    endloop
  endfacet
  facet normal -0 0 -1
    outer loop
      vertex 4.34667 1.16469 2.5
      vertex 3.8637 1.03528 2.5
      vertex 4.15746 1.72207 2.5
    endloop
  endfacet
  facet normal 0 0 -1
    outer loop
      vertex 3.69552 1.53073 2.5
      vertex 4.15746 1.72207 2.5
      vertex 3.8637 1.03528 2.5
    endloop
  endfacet
  facet normal -0 0 -1
    outer loop
      vertex 4.15746 1.72207 2.5
      vertex 3.69552 1.53073 2.5
      vertex 3.89711 2.25 2.5
    endloop
  endfacet
  facet normal 0 0 -1
    outer loop
      vertex 3.4641 2 2.5
      vertex 3.89711 2.25 2.5
      vertex 3.69552 1.53073 2.5
    endloop
  endfacet
  facet normal -0 0 -1
    outer loop
      vertex 3.89711 2.25 2.5
      vertex 3.4641 2 2.5
      vertex 3.57009 2.73943 2.5
    endloop
  endfacet
  facet normal 0 0 -1
    outer loop
      vertex 3.17341 2.43505 2.5
      vertex 3.57009 2.73943 2.5
      vertex 3.4641 2 2.5
    endloop
  endfacet
  facet normal -0 0 -1
    outer loop
      vertex 3.57009 2.73943 2.5
      vertex 3.17341 2.43505 2.5
      vertex 3.18198 3.18198 2.5
    endloop
  endfacet
  facet normal 0 0 -1
    outer loop
      vertex 2.82843 2.82843 2.5
      vertex 3.18198 3.18198 2.5
      vertex 3.17341 2.43505 2.5
    endloop
  endfacet
  facet normal 0 0 -1
    outer loop
      vertex 2.82843 2.82843 2.5
      vertex 2.73943 3.57009 2.5
      vertex 3.18198 3.18198 2.5
    endloop
  endfacet
  facet normal 0 0 -1
    outer loop
      vertex 2.43505 3.17341 2.5
      vertex 2.73943 3.57009 2.5
      vertex 2.82843 2.82843 2.5
    endloop
  endfacet
  facet normal 0 0 -1
    outer loop
      vertex 2.43505 3.17341 2.5
      vertex 2.25 3.89711 2.5
      vertex 2.73943 3.57009 2.5
    endloop
  endfacet
  facet normal 0 0 -1
    outer loop
      vertex 2 3.4641 2.5
      vertex 2.25 3.89711 2.5
      vertex 2.43505 3.17341 2.5
    endloop
  endfacet
  facet normal 0 0 -1
    outer loop
      vertex 2 3.4641 2.5
      vertex 1.72207 4.15746 2.5
      vertex 2.25 3.89711 2.5
    endloop
  endfacet
  facet normal 0 0 -1
    outer loop
      vertex 1.53073 3.69552 2.5
      vertex 1.72207 4.15746 2.5
      vertex 2 3.4641 2.5
    endloop
  endfacet
  facet normal 0 0 -1
    outer loop
      vertex 1.53073 3.69552 2.5
      vertex 1.16469 4.34667 2.5
      vertex 1.72207 4.15746 2.5
    endloop
  endfacet
  facet normal 0 0 -1
    outer loop
      vertex 1.03528 3.8637 2.5
      vertex 1.16469 4.34667 2.5
      vertex 1.53073 3.69552 2.5
    endloop
  endfacet
  facet normal 0 0 -1
    outer loop
      vertex 1.03528 3.8637 2.5
      vertex 0.587367 4.4615 2.5
      vertex 1.16469 4.34667 2.5
    endloop
  endfacet
  facet normal 0 0 -1
    outer loop
      vertex 0.522104 3.96578 2.5
      vertex 0.587367 4.4615 2.5
      vertex 1.03528 3.8637 2.5
    endloop
  endfacet
  facet normal 0 0 -1
    outer loop
      vertex 0 4 2.5
      vertex 0.587367 4.4615 2.5
      vertex 0.522104 3.96578 2.5
    endloop
  endfacet
  facet normal 0 0 -1
    outer loop
      vertex 0 4 2.5
      vertex 0 4.5 2.5
      vertex 0.587367 4.4615 2.5
    endloop
  endfacet
  facet normal 0 0 -1
    outer loop
      vertex -0.522104 3.96578 2.5
      vertex 0 4.5 2.5
      vertex 0 4 2.5
    endloop
  endfacet
  facet normal 0 0 -1
    outer loop
      vertex -0.522104 3.96578 2.5
      vertex -0.587367 4.4615 2.5
      vertex 0 4.5 2.5
    endloop
  endfacet
  facet normal 0 0 -1
    outer loop
      vertex -1.03528 3.8637 2.5
      vertex -0.587367 4.4615 2.5
      vertex -0.522104 3.96578 2.5
    endloop
  endfacet
  facet normal 0 0 -1
    outer loop
      vertex -1.03528 3.8637 2.5
      vertex -1.16469 4.34667 2.5
      vertex -0.587367 4.4615 2.5
    endloop
  endfacet
  facet normal 0 0 -1
    outer loop
      vertex -1.53073 3.69552 2.5
      vertex -1.16469 4.34667 2.5
      vertex -1.03528 3.8637 2.5
    endloop
  endfacet
  facet normal 0 0 -1
    outer loop
      vertex -1.53073 3.69552 2.5
      vertex -1.72207 4.15746 2.5
      vertex -1.16469 4.34667 2.5
    endloop
  endfacet
  facet normal 0 0 -1
    outer loop
      vertex -2 3.4641 2.5
      vertex -1.72207 4.15746 2.5
      vertex -1.53073 3.69552 2.5
    endloop
  endfacet
  facet normal 0 0 -1
    outer loop
      vertex -2 3.4641 2.5
      vertex -2.25 3.89711 2.5
      vertex -1.72207 4.15746 2.5
    endloop
  endfacet
  facet normal 0 0 -1
    outer loop
      vertex -2.43505 3.17341 2.5
      vertex -2.25 3.89711 2.5
      vertex -2 3.4641 2.5
    endloop
  endfacet
  facet normal 0 0 -1
    outer loop
      vertex -2.43505 3.17341 2.5
      vertex -2.73943 3.57009 2.5
      vertex -2.25 3.89711 2.5
    endloop
  endfacet
  facet normal 0 0 -1
    outer loop
      vertex -2.82843 2.82843 2.5
      vertex -2.73943 3.57009 2.5
      vertex -2.43505 3.17341 2.5
    endloop
  endfacet
  facet normal 0 0 -1
    outer loop
      vertex -3.18198 3.18198 2.5
      vertex -2.82843 2.82843 2.5
      vertex -3.17341 2.43505 2.5
    endloop
  endfacet
  facet normal 0 0 -1
    outer loop
      vertex -2.82843 2.82843 2.5
      vertex -3.18198 3.18198 2.5
      vertex -2.73943 3.57009 2.5
    endloop
  endfacet
  facet normal 0 0 -1
    outer loop
      vertex -3.57009 2.73943 2.5
      vertex -3.17341 2.43505 2.5
      vertex -3.4641 2 2.5
    endloop
  endfacet
  facet normal 0 0 -1
    outer loop
      vertex -3.17341 2.43505 2.5
      vertex -3.57009 2.73943 2.5
      vertex -3.18198 3.18198 2.5
    endloop
  endfacet
  facet normal 0 0 -1
    outer loop
      vertex -3.89711 2.25 2.5
      vertex -3.4641 2 2.5
      vertex -3.69552 1.53073 2.5
    endloop
  endfacet
  facet normal 0 0 -1
    outer loop
      vertex -4.15746 1.72207 2.5
      vertex -3.69552 1.53073 2.5
      vertex -3.8637 1.03528 2.5
    endloop
  endfacet
  facet normal 0 0 -1
    outer loop
      vertex -3.4641 2 2.5
      vertex -3.89711 2.25 2.5
      vertex -3.57009 2.73943 2.5
    endloop
  endfacet
  facet normal 0 0 -1
    outer loop
      vertex -4.34667 1.16469 2.5
      vertex -3.8637 1.03528 2.5
      vertex -3.96578 0.522104 2.5
    endloop
  endfacet
  facet normal 0 0 -1
    outer loop
      vertex -4.4615 0.587367 2.5
      vertex -3.96578 0.522104 2.5
      vertex -4 0 2.5
    endloop
  endfacet
  facet normal 0 0 -1
    outer loop
      vertex -4.4615 -0.587367 2.5
      vertex -3.96578 -0.522104 2.5
      vertex -4.34667 -1.16469 2.5
    endloop
  endfacet
  facet normal 0 0 -1
    outer loop
      vertex -3.69552 1.53073 2.5
      vertex -4.15746 1.72207 2.5
      vertex -3.89711 2.25 2.5
    endloop
  endfacet
  facet normal -0 0 -1
    outer loop
      vertex -3.96578 -0.522104 2.5
      vertex -4.4615 -0.587367 2.5
      vertex -4 0 2.5
    endloop
  endfacet
  facet normal 0 0 -1
    outer loop
      vertex -3.8637 1.03528 2.5
      vertex -4.34667 1.16469 2.5
      vertex -4.15746 1.72207 2.5
    endloop
  endfacet
  facet normal 0 0 -1
    outer loop
      vertex -4.5 0 2.5
      vertex -4 0 2.5
      vertex -4.4615 -0.587367 2.5
    endloop
  endfacet
  facet normal 0 0 -1
    outer loop
      vertex -3.96578 0.522104 2.5
      vertex -4.4615 0.587367 2.5
      vertex -4.34667 1.16469 2.5
    endloop
  endfacet
  facet normal 0 0 -1
    outer loop
      vertex -4 0 2.5
      vertex -4.5 0 2.5
      vertex -4.4615 0.587367 2.5
    endloop
  endfacet
  facet normal 0.980785 0.19509 0
    outer loop
      vertex 4.4615 0.587367 3.5
      vertex 4.34667 1.16469 2.5
      vertex 4.34667 1.16469 3.5
    endloop
  endfacet
  facet normal 0.980785 0.19509 0
    outer loop
      vertex 4.34667 1.16469 2.5
      vertex 4.4615 0.587367 3.5
      vertex 4.4615 0.587367 2.5
    endloop
  endfacet
  facet normal 0.83147 0.55557 0
    outer loop
      vertex 3.89711 2.25 3.5
      vertex 3.57009 2.73943 2.5
      vertex 3.57009 2.73943 3.5
    endloop
  endfacet
  facet normal 0.83147 0.55557 0
    outer loop
      vertex 3.57009 2.73943 2.5
      vertex 3.89711 2.25 3.5
      vertex 3.89711 2.25 2.5
    endloop
  endfacet
  facet normal 0.75184 0.659345 0
    outer loop
      vertex 3.57009 2.73943 3.5
      vertex 3.18198 3.18198 2.5
      vertex 3.18198 3.18198 3.5
    endloop
  endfacet
  facet normal 0.75184 0.659345 0
    outer loop
      vertex 3.18198 3.18198 2.5
      vertex 3.57009 2.73943 3.5
      vertex 3.57009 2.73943 2.5
    endloop
  endfacet
  facet normal 0.555571 0.831469 -0
    outer loop
      vertex 2.73943 3.57009 2.5
      vertex 2.25 3.89711 3.5
      vertex 2.73943 3.57009 3.5
    endloop
  endfacet
  facet normal 0.555571 0.831469 0
    outer loop
      vertex 2.25 3.89711 3.5
      vertex 2.73943 3.57009 2.5
      vertex 2.25 3.89711 2.5
    endloop
  endfacet
  facet normal 0.0654045 0.997859 -0
    outer loop
      vertex 0.587367 4.4615 2.5
      vertex 0 4.5 3.5
      vertex 0.587367 4.4615 3.5
    endloop
  endfacet
  facet normal 0.0654045 0.997859 0
    outer loop
      vertex 0 4.5 3.5
      vertex 0.587367 4.4615 2.5
      vertex 0 4.5 2.5
    endloop
  endfacet
  facet normal -0.997859 0.0654045 0
    outer loop
      vertex -4.5 0 2.5
      vertex -4.4615 0.587367 3.5
      vertex -4.4615 0.587367 2.5
    endloop
  endfacet
  facet normal -0.997859 0.0654045 0
    outer loop
      vertex -4.4615 0.587367 3.5
      vertex -4.5 0 2.5
      vertex -4.5 0 3.5
    endloop
  endfacet
  facet normal -0.94693 0.321439 0
    outer loop
      vertex -4.34667 1.16469 2.5
      vertex -4.15746 1.72207 3.5
      vertex -4.15746 1.72207 2.5
    endloop
  endfacet
  facet normal -0.94693 0.321439 0
    outer loop
      vertex -4.15746 1.72207 3.5
      vertex -4.34667 1.16469 2.5
      vertex -4.34667 1.16469 3.5
    endloop
  endfacet
  facet normal -0.83147 0.55557 0
    outer loop
      vertex -3.89711 2.25 2.5
      vertex -3.57009 2.73943 3.5
      vertex -3.57009 2.73943 2.5
    endloop
  endfacet
  facet normal -0.83147 0.55557 0
    outer loop
      vertex -3.57009 2.73943 3.5
      vertex -3.89711 2.25 2.5
      vertex -3.89711 2.25 3.5
    endloop
  endfacet
  facet normal -0.0654045 0.997859 0
    outer loop
      vertex 0 4.5 2.5
      vertex -0.587367 4.4615 3.5
      vertex 0 4.5 3.5
    endloop
  endfacet
  facet normal -0.0654045 0.997859 0
    outer loop
      vertex -0.587367 4.4615 3.5
      vertex 0 4.5 2.5
      vertex -0.587367 4.4615 2.5
    endloop
  endfacet
  facet normal -0.55557 0.83147 0
    outer loop
      vertex -2.25 3.89711 2.5
      vertex -2.73943 3.57009 3.5
      vertex -2.25 3.89711 3.5
    endloop
  endfacet
  facet normal -0.55557 0.83147 0
    outer loop
      vertex -2.73943 3.57009 3.5
      vertex -2.25 3.89711 2.5
      vertex -2.73943 3.57009 2.5
    endloop
  endfacet
  facet normal -0.659345 0.75184 0
    outer loop
      vertex -2.73943 3.57009 2.5
      vertex -3.18198 3.18198 3.5
      vertex -2.73943 3.57009 3.5
    endloop
  endfacet
  facet normal -0.659345 0.75184 0
    outer loop
      vertex -3.18198 3.18198 3.5
      vertex -2.73943 3.57009 2.5
      vertex -3.18198 3.18198 2.5
    endloop
  endfacet
  facet normal 0.997859 0.0654045 0
    outer loop
      vertex 4.5 0 3.5
      vertex 4.4615 0.587367 2.5
      vertex 4.4615 0.587367 3.5
    endloop
  endfacet
  facet normal 0.997859 0.0654045 0
    outer loop
      vertex 4.4615 0.587367 2.5
      vertex 4.5 0 3.5
      vertex 4.5 0 2.5
    endloop
  endfacet
  facet normal 0.0654045 -0.997859 0
    outer loop
      vertex 0 -4.5 2.5
      vertex 0.587367 -4.4615 3.5
      vertex 0 -4.5 3.5
    endloop
  endfacet
  facet normal 0.0654045 -0.997859 0
    outer loop
      vertex 0.587367 -4.4615 3.5
      vertex 0 -4.5 2.5
      vertex 0.587367 -4.4615 2.5
    endloop
  endfacet
  facet normal 0.94693 -0.321439 0
    outer loop
      vertex 4.15746 -1.72207 3.5
      vertex 4.34667 -1.16469 2.5
      vertex 4.34667 -1.16469 3.5
    endloop
  endfacet
  facet normal 0.94693 -0.321439 0
    outer loop
      vertex 4.34667 -1.16469 2.5
      vertex 4.15746 -1.72207 3.5
      vertex 4.15746 -1.72207 2.5
    endloop
  endfacet
  facet normal 0.19509 -0.980785 0
    outer loop
      vertex 0.587367 -4.4615 2.5
      vertex 1.16469 -4.34667 3.5
      vertex 0.587367 -4.4615 3.5
    endloop
  endfacet
  facet normal 0.19509 -0.980785 0
    outer loop
      vertex 1.16469 -4.34667 3.5
      vertex 0.587367 -4.4615 2.5
      vertex 1.16469 -4.34667 2.5
    endloop
  endfacet
  facet normal 0.555571 -0.831469 0
    outer loop
      vertex 2.25 -3.89711 2.5
      vertex 2.73943 -3.57009 3.5
      vertex 2.25 -3.89711 3.5
    endloop
  endfacet
  facet normal 0.555571 -0.831469 0
    outer loop
      vertex 2.73943 -3.57009 3.5
      vertex 2.25 -3.89711 2.5
      vertex 2.73943 -3.57009 2.5
    endloop
  endfacet
  facet normal 0.896873 -0.442288 0
    outer loop
      vertex 3.89711 -2.25 3.5
      vertex 4.15746 -1.72207 2.5
      vertex 4.15746 -1.72207 3.5
    endloop
  endfacet
  facet normal 0.896873 -0.442288 0
    outer loop
      vertex 4.15746 -1.72207 2.5
      vertex 3.89711 -2.25 3.5
      vertex 3.89711 -2.25 2.5
    endloop
  endfacet
  facet normal -0.0654045 -0.997859 0
    outer loop
      vertex -0.587367 -4.4615 2.5
      vertex 0 -4.5 3.5
      vertex -0.587367 -4.4615 3.5
    endloop
  endfacet
  facet normal -0.0654045 -0.997859 -0
    outer loop
      vertex 0 -4.5 3.5
      vertex -0.587367 -4.4615 2.5
      vertex 0 -4.5 2.5
    endloop
  endfacet
  facet normal -0.442288 -0.896873 0
    outer loop
      vertex -2.25 -3.89711 2.5
      vertex -1.72207 -4.15746 3.5
      vertex -2.25 -3.89711 3.5
    endloop
  endfacet
  facet normal -0.442288 -0.896873 -0
    outer loop
      vertex -1.72207 -4.15746 3.5
      vertex -2.25 -3.89711 2.5
      vertex -1.72207 -4.15746 2.5
    endloop
  endfacet
  facet normal -0.94693 -0.321439 0
    outer loop
      vertex -4.15746 -1.72207 2.5
      vertex -4.34667 -1.16469 3.5
      vertex -4.34667 -1.16469 2.5
    endloop
  endfacet
  facet normal -0.94693 -0.321439 0
    outer loop
      vertex -4.34667 -1.16469 3.5
      vertex -4.15746 -1.72207 2.5
      vertex -4.15746 -1.72207 3.5
    endloop
  endfacet
  facet normal -0.997859 -0.0654045 0
    outer loop
      vertex -4.4615 -0.587367 2.5
      vertex -4.5 0 3.5
      vertex -4.5 0 2.5
    endloop
  endfacet
  facet normal -0.997859 -0.0654045 0
    outer loop
      vertex -4.5 0 3.5
      vertex -4.4615 -0.587367 2.5
      vertex -4.4615 -0.587367 3.5
    endloop
  endfacet
  facet normal -0.83147 -0.55557 0
    outer loop
      vertex -3.57009 -2.73943 2.5
      vertex -3.89711 -2.25 3.5
      vertex -3.89711 -2.25 2.5
    endloop
  endfacet
  facet normal -0.83147 -0.55557 0
    outer loop
      vertex -3.89711 -2.25 3.5
      vertex -3.57009 -2.73943 2.5
      vertex -3.57009 -2.73943 3.5
    endloop
  endfacet
  facet normal -0.75184 -0.659345 0
    outer loop
      vertex -3.18198 -3.18198 2.5
      vertex -3.57009 -2.73943 3.5
      vertex -3.57009 -2.73943 2.5
    endloop
  endfacet
  facet normal -0.75184 -0.659345 0
    outer loop
      vertex -3.57009 -2.73943 3.5
      vertex -3.18198 -3.18198 2.5
      vertex -3.18198 -3.18198 3.5
    endloop
  endfacet
  facet normal 0 0 1
    outer loop
      vertex 4.4615 0.587367 3.5
      vertex 4.4615 -0.587367 3.5
      vertex 4.5 0 3.5
    endloop
  endfacet
  facet normal 0 0 1
    outer loop
      vertex 4.34667 1.16469 3.5
      vertex 4.4615 -0.587367 3.5
      vertex 4.4615 0.587367 3.5
    endloop
  endfacet
  facet normal 0 0 1
    outer loop
      vertex 4.34667 1.16469 3.5
      vertex 4.34667 -1.16469 3.5
      vertex 4.4615 -0.587367 3.5
    endloop
  endfacet
  facet normal 0 0 1
    outer loop
      vertex 4.15746 1.72207 3.5
      vertex 4.34667 -1.16469 3.5
      vertex 4.34667 1.16469 3.5
    endloop
  endfacet
  facet normal 0 0 1
    outer loop
      vertex 4.15746 1.72207 3.5
      vertex 4.15746 -1.72207 3.5
      vertex 4.34667 -1.16469 3.5
    endloop
  endfacet
  facet normal 0 0 1
    outer loop
      vertex 3.89711 2.25 3.5
      vertex 4.15746 -1.72207 3.5
      vertex 4.15746 1.72207 3.5
    endloop
  endfacet
  facet normal 0 0 1
    outer loop
      vertex 3.89711 2.25 3.5
      vertex 3.89711 -2.25 3.5
      vertex 4.15746 -1.72207 3.5
    endloop
  endfacet
  facet normal 0 0 1
    outer loop
      vertex 3.57009 2.73943 3.5
      vertex 3.89711 -2.25 3.5
      vertex 3.89711 2.25 3.5
    endloop
  endfacet
  facet normal 0 0 1
    outer loop
      vertex 3.57009 2.73943 3.5
      vertex 3.57009 -2.73943 3.5
      vertex 3.89711 -2.25 3.5
    endloop
  endfacet
  facet normal 0 0 1
    outer loop
      vertex 3.18198 3.18198 3.5
      vertex 3.57009 -2.73943 3.5
      vertex 3.57009 2.73943 3.5
    endloop
  endfacet
  facet normal 0 0 1
    outer loop
      vertex 3.18198 3.18198 3.5
      vertex 3.18198 -3.18198 3.5
      vertex 3.57009 -2.73943 3.5
    endloop
  endfacet
  facet normal 0 0 1
    outer loop
      vertex 2.73943 3.57009 3.5
      vertex 3.18198 -3.18198 3.5
      vertex 3.18198 3.18198 3.5
    endloop
  endfacet
  facet normal 0 0 1
    outer loop
      vertex 2.73943 3.57009 3.5
      vertex 2.73943 -3.57009 3.5
      vertex 3.18198 -3.18198 3.5
    endloop
  endfacet
  facet normal 0 0 1
    outer loop
      vertex 2.25 3.89711 3.5
      vertex 2.73943 -3.57009 3.5
      vertex 2.73943 3.57009 3.5
    endloop
  endfacet
  facet normal 0 0 1
    outer loop
      vertex 2.25 3.89711 3.5
      vertex 2.25 -3.89711 3.5
      vertex 2.73943 -3.57009 3.5
    endloop
  endfacet
  facet normal 0 0 1
    outer loop
      vertex 1.72207 4.15746 3.5
      vertex 2.25 -3.89711 3.5
      vertex 2.25 3.89711 3.5
    endloop
  endfacet
  facet normal 0 0 1
    outer loop
      vertex 1.72207 4.15746 3.5
      vertex 1.72207 -4.15746 3.5
      vertex 2.25 -3.89711 3.5
    endloop
  endfacet
  facet normal 0 0 1
    outer loop
      vertex 1.16469 4.34667 3.5
      vertex 1.72207 -4.15746 3.5
      vertex 1.72207 4.15746 3.5
    endloop
  endfacet
  facet normal 0 0 1
    outer loop
      vertex 1.16469 4.34667 3.5
      vertex 1.16469 -4.34667 3.5
      vertex 1.72207 -4.15746 3.5
    endloop
  endfacet
  facet normal 0 0 1
    outer loop
      vertex 0.587367 4.4615 3.5
      vertex 1.16469 -4.34667 3.5
      vertex 1.16469 4.34667 3.5
    endloop
  endfacet
  facet normal 0 0 1
    outer loop
      vertex 0.587367 4.4615 3.5
      vertex 0.587367 -4.4615 3.5
      vertex 1.16469 -4.34667 3.5
    endloop
  endfacet
  facet normal 0 0 1
    outer loop
      vertex 0 4.5 3.5
      vertex 0.587367 -4.4615 3.5
      vertex 0.587367 4.4615 3.5
    endloop
  endfacet
  facet normal 0 0 1
    outer loop
      vertex 0 4.5 3.5
      vertex 0 -4.5 3.5
      vertex 0.587367 -4.4615 3.5
    endloop
  endfacet
  facet normal -0 0 1
    outer loop
      vertex -0.587367 4.4615 3.5
      vertex 0 -4.5 3.5
      vertex 0 4.5 3.5
    endloop
  endfacet
  facet normal 0 0 1
    outer loop
      vertex -0.587367 4.4615 3.5
      vertex -0.587367 -4.4615 3.5
      vertex 0 -4.5 3.5
    endloop
  endfacet
  facet normal -0 0 1
    outer loop
      vertex -1.16469 4.34667 3.5
      vertex -0.587367 -4.4615 3.5
      vertex -0.587367 4.4615 3.5
    endloop
  endfacet
  facet normal 0 0 1
    outer loop
      vertex -1.16469 4.34667 3.5
      vertex -1.16469 -4.34667 3.5
      vertex -0.587367 -4.4615 3.5
    endloop
  endfacet
  facet normal -0 0 1
    outer loop
      vertex -1.72207 4.15746 3.5
      vertex -1.16469 -4.34667 3.5
      vertex -1.16469 4.34667 3.5
    endloop
  endfacet
  facet normal 0 0 1
    outer loop
      vertex -1.72207 4.15746 3.5
      vertex -1.72207 -4.15746 3.5
      vertex -1.16469 -4.34667 3.5
    endloop
  endfacet
  facet normal -0 0 1
    outer loop
      vertex -2.25 3.89711 3.5
      vertex -1.72207 -4.15746 3.5
      vertex -1.72207 4.15746 3.5
    endloop
  endfacet
  facet normal 0 0 1
    outer loop
      vertex -2.25 3.89711 3.5
      vertex -2.25 -3.89711 3.5
      vertex -1.72207 -4.15746 3.5
    endloop
  endfacet
  facet normal -0 0 1
    outer loop
      vertex -2.73943 3.57009 3.5
      vertex -2.25 -3.89711 3.5
      vertex -2.25 3.89711 3.5
    endloop
  endfacet
  facet normal 0 0 1
    outer loop
      vertex -2.73943 3.57009 3.5
      vertex -2.73943 -3.57009 3.5
      vertex -2.25 -3.89711 3.5
    endloop
  endfacet
  facet normal -0 0 1
    outer loop
      vertex -3.18198 3.18198 3.5
      vertex -2.73943 -3.57009 3.5
      vertex -2.73943 3.57009 3.5
    endloop
  endfacet
  facet normal 0 0 1
    outer loop
      vertex -3.18198 3.18198 3.5
      vertex -3.18198 -3.18198 3.5
      vertex -2.73943 -3.57009 3.5
    endloop
  endfacet
  facet normal -0 0 1
    outer loop
      vertex -3.57009 2.73943 3.5
      vertex -3.18198 -3.18198 3.5
      vertex -3.18198 3.18198 3.5
    endloop
  endfacet
  facet normal 0 0 1
    outer loop
      vertex -3.57009 2.73943 3.5
      vertex -3.57009 -2.73943 3.5
      vertex -3.18198 -3.18198 3.5
    endloop
  endfacet
  facet normal -0 0 1
    outer loop
      vertex -3.89711 2.25 3.5
      vertex -3.57009 -2.73943 3.5
      vertex -3.57009 2.73943 3.5
    endloop
  endfacet
  facet normal 0 0 1
    outer loop
      vertex -3.89711 2.25 3.5
      vertex -3.89711 -2.25 3.5
      vertex -3.57009 -2.73943 3.5
    endloop
  endfacet
  facet normal -0 0 1
    outer loop
      vertex -4.15746 1.72207 3.5
      vertex -3.89711 -2.25 3.5
      vertex -3.89711 2.25 3.5
    endloop
  endfacet
  facet normal 0 0 1
    outer loop
      vertex -4.15746 1.72207 3.5
      vertex -4.15746 -1.72207 3.5
      vertex -3.89711 -2.25 3.5
    endloop
  endfacet
  facet normal -0 0 1
    outer loop
      vertex -4.34667 1.16469 3.5
      vertex -4.15746 -1.72207 3.5
      vertex -4.15746 1.72207 3.5
    endloop
  endfacet
  facet normal 0 0 1
    outer loop
      vertex -4.34667 1.16469 3.5
      vertex -4.34667 -1.16469 3.5
      vertex -4.15746 -1.72207 3.5
    endloop
  endfacet
  facet normal -0 0 1
    outer loop
      vertex -4.4615 0.587367 3.5
      vertex -4.34667 -1.16469 3.5
      vertex -4.34667 1.16469 3.5
    endloop
  endfacet
  facet normal 0 0 1
    outer loop
      vertex -4.4615 0.587367 3.5
      vertex -4.4615 -0.587367 3.5
      vertex -4.34667 -1.16469 3.5
    endloop
  endfacet
  facet normal 0 -0 1
    outer loop
      vertex -4.4615 -0.587367 3.5
      vertex -4.4615 0.587367 3.5
      vertex -4.5 0 3.5
    endloop
  endfacet
  facet normal 0.980785 -0.19509 0
    outer loop
      vertex 4.34667 -1.16469 3.5
      vertex 4.4615 -0.587367 2.5
      vertex 4.4615 -0.587367 3.5
    endloop
  endfacet
  facet normal 0.980785 -0.19509 0
    outer loop
      vertex 4.4615 -0.587367 2.5
      vertex 4.34667 -1.16469 3.5
      vertex 4.34667 -1.16469 2.5
    endloop
  endfacet
  facet normal 0.659345 -0.75184 0
    outer loop
      vertex 2.73943 -3.57009 2.5
      vertex 3.18198 -3.18198 3.5
      vertex 2.73943 -3.57009 3.5
    endloop
  endfacet
  facet normal 0.659345 -0.75184 0
    outer loop
      vertex 3.18198 -3.18198 3.5
      vertex 2.73943 -3.57009 2.5
      vertex 3.18198 -3.18198 2.5
    endloop
  endfacet
  facet normal 0.831469 -0.555571 0
    outer loop
      vertex 3.57009 -2.73943 3.5
      vertex 3.89711 -2.25 2.5
      vertex 3.89711 -2.25 3.5
    endloop
  endfacet
  facet normal 0.831469 -0.555571 0
    outer loop
      vertex 3.89711 -2.25 2.5
      vertex 3.57009 -2.73943 3.5
      vertex 3.57009 -2.73943 2.5
    endloop
  endfacet
  facet normal -0.555571 -0.831469 0
    outer loop
      vertex -2.73943 -3.57009 2.5
      vertex -2.25 -3.89711 3.5
      vertex -2.73943 -3.57009 3.5
    endloop
  endfacet
  facet normal -0.555571 -0.831469 -0
    outer loop
      vertex -2.25 -3.89711 3.5
      vertex -2.73943 -3.57009 2.5
      vertex -2.25 -3.89711 2.5
    endloop
  endfacet
  facet normal -0.980785 -0.19509 0
    outer loop
      vertex -4.34667 -1.16469 2.5
      vertex -4.4615 -0.587367 3.5
      vertex -4.4615 -0.587367 2.5
    endloop
  endfacet
  facet normal -0.980785 -0.19509 0
    outer loop
      vertex -4.4615 -0.587367 3.5
      vertex -4.34667 -1.16469 2.5
      vertex -4.34667 -1.16469 3.5
    endloop
  endfacet
  facet normal 0.55557 0.83147 -0
    outer loop
      vertex 2.43505 3.17341 1
      vertex 2 3.4641 2.5
      vertex 2.43505 3.17341 2.5
    endloop
  endfacet
  facet normal 0.55557 0.83147 0
    outer loop
      vertex 2 3.4641 2.5
      vertex 2.43505 3.17341 1
      vertex 2 3.4641 1
    endloop
  endfacet
  facet normal -0.32144 0.94693 0
    outer loop
      vertex -1.03528 3.8637 1
      vertex -1.53073 3.69552 2.5
      vertex -1.03528 3.8637 2.5
    endloop
  endfacet
  facet normal -0.32144 0.94693 0
    outer loop
      vertex -1.53073 3.69552 2.5
      vertex -1.03528 3.8637 1
      vertex -1.53073 3.69552 1
    endloop
  endfacet
  facet normal -0.896872 0.442289 0
    outer loop
      vertex -3.69552 1.53073 1
      vertex -3.4641 2 2.5
      vertex -3.4641 2 1
    endloop
  endfacet
  facet normal -0.896872 0.442289 0
    outer loop
      vertex -3.4641 2 2.5
      vertex -3.69552 1.53073 1
      vertex -3.69552 1.53073 2.5
    endloop
  endfacet
  facet normal -0.442289 -0.896873 0
    outer loop
      vertex -2 -3.4641 1
      vertex -1.53073 -3.69552 2.5
      vertex -2 -3.4641 2.5
    endloop
  endfacet
  facet normal -0.442289 -0.896873 -0
    outer loop
      vertex -1.53073 -3.69552 2.5
      vertex -2 -3.4641 1
      vertex -1.53073 -3.69552 1
    endloop
  endfacet
  facet normal 0.896872 0.442289 0
    outer loop
      vertex 3.69552 1.53073 2.5
      vertex 3.4641 2 1
      vertex 3.4641 2 2.5
    endloop
  endfacet
  facet normal 0.896872 0.442289 0
    outer loop
      vertex 3.4641 2 1
      vertex 3.69552 1.53073 2.5
      vertex 3.69552 1.53073 1
    endloop
  endfacet
  facet normal 0.831471 0.555569 0
    outer loop
      vertex 3.4641 2 2.5
      vertex 3.17341 2.43505 1
      vertex 3.17341 2.43505 2.5
    endloop
  endfacet
  facet normal 0.831471 0.555569 0
    outer loop
      vertex 3.17341 2.43505 1
      vertex 3.4641 2 2.5
      vertex 3.4641 2 1
    endloop
  endfacet
  facet normal 0.442289 0.896873 -0
    outer loop
      vertex 2 3.4641 1
      vertex 1.53073 3.69552 2.5
      vertex 2 3.4641 2.5
    endloop
  endfacet
  facet normal 0.442289 0.896873 0
    outer loop
      vertex 1.53073 3.69552 2.5
      vertex 2 3.4641 1
      vertex 1.53073 3.69552 1
    endloop
  endfacet
  facet normal 0.0654035 0.997859 -0
    outer loop
      vertex 0.522104 3.96578 1
      vertex 0 4 2.5
      vertex 0.522104 3.96578 2.5
    endloop
  endfacet
  facet normal 0.0654035 0.997859 0
    outer loop
      vertex 0 4 2.5
      vertex 0.522104 3.96578 1
      vertex 0 4 1
    endloop
  endfacet
  facet normal -0.997859 0.0654035 0
    outer loop
      vertex -4 0 1
      vertex -3.96578 0.522104 2.5
      vertex -3.96578 0.522104 1
    endloop
  endfacet
  facet normal -0.997859 0.0654035 0
    outer loop
      vertex -3.96578 0.522104 2.5
      vertex -4 0 1
      vertex -4 0 2.5
    endloop
  endfacet
  facet normal -0.751839 0.659347 0
    outer loop
      vertex -3.17341 2.43505 1
      vertex -2.82843 2.82843 2.5
      vertex -2.82843 2.82843 1
    endloop
  endfacet
  facet normal -0.751839 0.659347 0
    outer loop
      vertex -2.82843 2.82843 2.5
      vertex -3.17341 2.43505 1
      vertex -3.17341 2.43505 2.5
    endloop
  endfacet
  facet normal -0.0654035 0.997859 0
    outer loop
      vertex 0 4 1
      vertex -0.522104 3.96578 2.5
      vertex 0 4 2.5
    endloop
  endfacet
  facet normal -0.0654035 0.997859 0
    outer loop
      vertex -0.522104 3.96578 2.5
      vertex 0 4 1
      vertex -0.522104 3.96578 1
    endloop
  endfacet
  facet normal -0.659347 0.751839 0
    outer loop
      vertex -2.43505 3.17341 1
      vertex -2.82843 2.82843 2.5
      vertex -2.43505 3.17341 2.5
    endloop
  endfacet
  facet normal -0.659347 0.751839 0
    outer loop
      vertex -2.82843 2.82843 2.5
      vertex -2.43505 3.17341 1
      vertex -2.82843 2.82843 1
    endloop
  endfacet
  facet normal 0.997859 0.0654035 0
    outer loop
      vertex 4 0 2.5
      vertex 3.96578 0.522104 1
      vertex 3.96578 0.522104 2.5
    endloop
  endfacet
  facet normal 0.997859 0.0654035 0
    outer loop
      vertex 3.96578 0.522104 1
      vertex 4 0 2.5
      vertex 4 0 1
    endloop
  endfacet
  facet normal 0.83147 -0.55557 0
    outer loop
      vertex 3.17341 -2.43505 2.5
      vertex 3.4641 -2 1
      vertex 3.4641 -2 2.5
    endloop
  endfacet
  facet normal 0.83147 -0.55557 0
    outer loop
      vertex 3.4641 -2 1
      vertex 3.17341 -2.43505 2.5
      vertex 3.17341 -2.43505 1
    endloop
  endfacet
  facet normal 0.94693 -0.32144 0
    outer loop
      vertex 3.69552 -1.53073 2.5
      vertex 3.8637 -1.03528 1
      vertex 3.8637 -1.03528 2.5
    endloop
  endfacet
  facet normal 0.94693 -0.32144 0
    outer loop
      vertex 3.8637 -1.03528 1
      vertex 3.69552 -1.53073 2.5
      vertex 3.69552 -1.53073 1
    endloop
  endfacet
  facet normal 0.55557 -0.83147 0
    outer loop
      vertex 2 -3.4641 1
      vertex 2.43505 -3.17341 2.5
      vertex 2 -3.4641 2.5
    endloop
  endfacet
  facet normal 0.55557 -0.83147 0
    outer loop
      vertex 2.43505 -3.17341 2.5
      vertex 2 -3.4641 1
      vertex 2.43505 -3.17341 1
    endloop
  endfacet
  facet normal -0.0654035 -0.997859 0
    outer loop
      vertex -0.522104 -3.96578 1
      vertex 0 -4 2.5
      vertex -0.522104 -3.96578 2.5
    endloop
  endfacet
  facet normal -0.0654035 -0.997859 -0
    outer loop
      vertex 0 -4 2.5
      vertex -0.522104 -3.96578 1
      vertex 0 -4 1
    endloop
  endfacet
  facet normal -0.659347 -0.751839 0
    outer loop
      vertex -2.82843 -2.82843 1
      vertex -2.43505 -3.17341 2.5
      vertex -2.82843 -2.82843 2.5
    endloop
  endfacet
  facet normal -0.659347 -0.751839 -0
    outer loop
      vertex -2.43505 -3.17341 2.5
      vertex -2.82843 -2.82843 1
      vertex -2.43505 -3.17341 1
    endloop
  endfacet
  facet normal -0.997859 -0.0654035 0
    outer loop
      vertex -3.96578 -0.522104 1
      vertex -4 0 2.5
      vertex -4 0 1
    endloop
  endfacet
  facet normal -0.997859 -0.0654035 0
    outer loop
      vertex -4 0 2.5
      vertex -3.96578 -0.522104 1
      vertex -3.96578 -0.522104 2.5
    endloop
  endfacet
  facet normal 0 0 1
    outer loop
      vertex 4 0 1
      vertex 9 0 1
      vertex 8.923 1.17474 1
    endloop
  endfacet
  facet normal 0 0 1
    outer loop
      vertex 3.96578 0.522104 1
      vertex 8.923 1.17474 1
      vertex 8.69333 2.32937 1
    endloop
  endfacet
  facet normal 0 0 1
    outer loop
      vertex 9 0 1
      vertex 4 0 1
      vertex 8.923 -1.17474 1
    endloop
  endfacet
  facet normal 0 0 1
    outer loop
      vertex 3.8637 1.03528 1
      vertex 8.69333 2.32937 1
      vertex 8.31492 3.44415 1
    endloop
  endfacet
  facet normal -0 0 1
    outer loop
      vertex 3.96578 -0.522104 1
      vertex 8.923 -1.17474 1
      vertex 4 0 1
    endloop
  endfacet
  facet normal 0 0 1
    outer loop
      vertex 3.69552 1.53073 1
      vertex 8.31492 3.44415 1
      vertex 7.79423 4.5 1
    endloop
  endfacet
  facet normal 0 0 1
    outer loop
      vertex 8.923 -1.17474 1
      vertex 3.96578 -0.522104 1
      vertex 8.69333 -2.32937 1
    endloop
  endfacet
  facet normal 0 0 1
    outer loop
      vertex 3.4641 2 1
      vertex 7.79423 4.5 1
      vertex 7.14018 5.47885 1
    endloop
  endfacet
  facet normal -0 0 1
    outer loop
      vertex 3.8637 -1.03528 1
      vertex 8.69333 -2.32937 1
      vertex 3.96578 -0.522104 1
    endloop
  endfacet
  facet normal 0 0 1
    outer loop
      vertex 3.17341 2.43505 1
      vertex 7.14018 5.47885 1
      vertex 6.36396 6.36396 1
    endloop
  endfacet
  facet normal 0 0 1
    outer loop
      vertex 8.69333 -2.32937 1
      vertex 3.8637 -1.03528 1
      vertex 8.31492 -3.44415 1
    endloop
  endfacet
  facet normal 0 0 1
    outer loop
      vertex 2.82843 2.82843 1
      vertex 6.36396 6.36396 1
      vertex 5.47885 7.14018 1
    endloop
  endfacet
  facet normal -0 0 1
    outer loop
      vertex 3.69552 -1.53073 1
      vertex 8.31492 -3.44415 1
      vertex 3.8637 -1.03528 1
    endloop
  endfacet
  facet normal 0 0 1
    outer loop
      vertex 2.43505 3.17341 1
      vertex 5.47885 7.14018 1
      vertex 4.5 7.79423 1
    endloop
  endfacet
  facet normal 0 0 1
    outer loop
      vertex 8.31492 -3.44415 1
      vertex 3.69552 -1.53073 1
      vertex 7.79423 -4.5 1
    endloop
  endfacet
  facet normal -0 0 1
    outer loop
      vertex 3.4641 -2 1
      vertex 7.79423 -4.5 1
      vertex 3.69552 -1.53073 1
    endloop
  endfacet
  facet normal 0 0 1
    outer loop
      vertex 8.923 1.17474 1
      vertex 3.96578 0.522104 1
      vertex 4 0 1
    endloop
  endfacet
  facet normal 0 0 1
    outer loop
      vertex 8.69333 2.32937 1
      vertex 3.8637 1.03528 1
      vertex 3.96578 0.522104 1
    endloop
  endfacet
  facet normal 0 0 1
    outer loop
      vertex 8.31492 3.44415 1
      vertex 3.69552 1.53073 1
      vertex 3.8637 1.03528 1
    endloop
  endfacet
  facet normal 0 0 1
    outer loop
      vertex 7.79423 4.5 1
      vertex 3.4641 2 1
      vertex 3.69552 1.53073 1
    endloop
  endfacet
  facet normal 0 0 1
    outer loop
      vertex 2 3.4641 1
      vertex 4.5 7.79423 1
      vertex 3.44415 8.31492 1
    endloop
  endfacet
  facet normal 0 0 1
    outer loop
      vertex 7.14018 5.47885 1
      vertex 3.17341 2.43505 1
      vertex 3.4641 2 1
    endloop
  endfacet
  facet normal 0 0 1
    outer loop
      vertex 6.36396 6.36396 1
      vertex 2.82843 2.82843 1
      vertex 3.17341 2.43505 1
    endloop
  endfacet
  facet normal 0 0 1
    outer loop
      vertex 5.47885 7.14018 1
      vertex 2.43505 3.17341 1
      vertex 2.82843 2.82843 1
    endloop
  endfacet
  facet normal 0 0 1
    outer loop
      vertex 1.53073 3.69552 1
      vertex 3.44415 8.31492 1
      vertex 2.32937 8.69333 1
    endloop
  endfacet
  facet normal 0 0 1
    outer loop
      vertex 4.5 7.79423 1
      vertex 2 3.4641 1
      vertex 2.43505 3.17341 1
    endloop
  endfacet
  facet normal 0 0 1
    outer loop
      vertex 3.44415 8.31492 1
      vertex 1.53073 3.69552 1
      vertex 2 3.4641 1
    endloop
  endfacet
  facet normal 0 0 1
    outer loop
      vertex 1.03528 3.8637 1
      vertex 2.32937 8.69333 1
      vertex 1.17474 8.923 1
    endloop
  endfacet
  facet normal 0 0 1
    outer loop
      vertex 2.32937 8.69333 1
      vertex 1.03528 3.8637 1
      vertex 1.53073 3.69552 1
    endloop
  endfacet
  facet normal 0 0 1
    outer loop
      vertex 1.17474 8.923 1
      vertex 0.522104 3.96578 1
      vertex 1.03528 3.8637 1
    endloop
  endfacet
  facet normal 0 0 1
    outer loop
      vertex 0 9 1
      vertex 0.522104 3.96578 1
      vertex 1.17474 8.923 1
    endloop
  endfacet
  facet normal 0 0 1
    outer loop
      vertex 0 9 1
      vertex 0 4 1
      vertex 0.522104 3.96578 1
    endloop
  endfacet
  facet normal 0 0 1
    outer loop
      vertex 0 9 1
      vertex -0.522104 3.96578 1
      vertex 0 4 1
    endloop
  endfacet
  facet normal -0 0 1
    outer loop
      vertex -1.17474 8.923 1
      vertex -0.522104 3.96578 1
      vertex 0 9 1
    endloop
  endfacet
  facet normal 0 0 1
    outer loop
      vertex -0.522104 3.96578 1
      vertex -1.17474 8.923 1
      vertex -1.03528 3.8637 1
    endloop
  endfacet
  facet normal -0 0 1
    outer loop
      vertex -2.32937 8.69333 1
      vertex -1.03528 3.8637 1
      vertex -1.17474 8.923 1
    endloop
  endfacet
  facet normal 0 0 1
    outer loop
      vertex -1.03528 3.8637 1
      vertex -2.32937 8.69333 1
      vertex -1.53073 3.69552 1
    endloop
  endfacet
  facet normal -0 0 1
    outer loop
      vertex -3.44415 8.31492 1
      vertex -1.53073 3.69552 1
      vertex -2.32937 8.69333 1
    endloop
  endfacet
  facet normal 0 0 1
    outer loop
      vertex -1.53073 3.69552 1
      vertex -3.44415 8.31492 1
      vertex -2 3.4641 1
    endloop
  endfacet
  facet normal -0 0 1
    outer loop
      vertex -4.5 7.79423 1
      vertex -2 3.4641 1
      vertex -3.44415 8.31492 1
    endloop
  endfacet
  facet normal 0 0 1
    outer loop
      vertex -2 3.4641 1
      vertex -4.5 7.79423 1
      vertex -2.43505 3.17341 1
    endloop
  endfacet
  facet normal -0 0 1
    outer loop
      vertex -5.47885 7.14018 1
      vertex -2.43505 3.17341 1
      vertex -4.5 7.79423 1
    endloop
  endfacet
  facet normal 0 0 1
    outer loop
      vertex -2.43505 3.17341 1
      vertex -5.47885 7.14018 1
      vertex -2.82843 2.82843 1
    endloop
  endfacet
  facet normal -0 0 1
    outer loop
      vertex -6.36396 6.36396 1
      vertex -2.82843 2.82843 1
      vertex -5.47885 7.14018 1
    endloop
  endfacet
  facet normal 0 0 1
    outer loop
      vertex -2.82843 2.82843 1
      vertex -6.36396 6.36396 1
      vertex -3.17341 2.43505 1
    endloop
  endfacet
  facet normal -0 0 1
    outer loop
      vertex -7.14018 5.47885 1
      vertex -3.17341 2.43505 1
      vertex -6.36396 6.36396 1
    endloop
  endfacet
  facet normal -0 0 1
    outer loop
      vertex -7.79423 4.5 1
      vertex -3.4641 2 1
      vertex -7.14018 5.47885 1
    endloop
  endfacet
  facet normal 0 0 1
    outer loop
      vertex -3.17341 2.43505 1
      vertex -7.14018 5.47885 1
      vertex -3.4641 2 1
    endloop
  endfacet
  facet normal 0 0 1
    outer loop
      vertex 7.79423 -4.5 1
      vertex 3.4641 -2 1
      vertex 7.14018 -5.47885 1
    endloop
  endfacet
  facet normal -0 0 1
    outer loop
      vertex 3.17341 -2.43505 1
      vertex 7.14018 -5.47885 1
      vertex 3.4641 -2 1
    endloop
  endfacet
  facet normal 0 0 1
    outer loop
      vertex 7.14018 -5.47885 1
      vertex 3.17341 -2.43505 1
      vertex 6.36396 -6.36396 1
    endloop
  endfacet
  facet normal -0 0 1
    outer loop
      vertex 2.82843 -2.82843 1
      vertex 6.36396 -6.36396 1
      vertex 3.17341 -2.43505 1
    endloop
  endfacet
  facet normal 0 0 1
    outer loop
      vertex 6.36396 -6.36396 1
      vertex 2.82843 -2.82843 1
      vertex 5.47885 -7.14018 1
    endloop
  endfacet
  facet normal -0 0 1
    outer loop
      vertex 2.43505 -3.17341 1
      vertex 5.47885 -7.14018 1
      vertex 2.82843 -2.82843 1
    endloop
  endfacet
  facet normal 0 0 1
    outer loop
      vertex 5.47885 -7.14018 1
      vertex 2.43505 -3.17341 1
      vertex 4.5 -7.79423 1
    endloop
  endfacet
  facet normal -0 0 1
    outer loop
      vertex 2 -3.4641 1
      vertex 4.5 -7.79423 1
      vertex 2.43505 -3.17341 1
    endloop
  endfacet
  facet normal 0 0 1
    outer loop
      vertex 4.5 -7.79423 1
      vertex 2 -3.4641 1
      vertex 3.44415 -8.31492 1
    endloop
  endfacet
  facet normal -0 0 1
    outer loop
      vertex 1.53073 -3.69552 1
      vertex 3.44415 -8.31492 1
      vertex 2 -3.4641 1
    endloop
  endfacet
  facet normal 0 0 1
    outer loop
      vertex 3.44415 -8.31492 1
      vertex 1.53073 -3.69552 1
      vertex 2.32937 -8.69333 1
    endloop
  endfacet
  facet normal -0 0 1
    outer loop
      vertex 1.03528 -3.8637 1
      vertex 2.32937 -8.69333 1
      vertex 1.53073 -3.69552 1
    endloop
  endfacet
  facet normal 0 0 1
    outer loop
      vertex 2.32937 -8.69333 1
      vertex 1.03528 -3.8637 1
      vertex 1.17474 -8.923 1
    endloop
  endfacet
  facet normal -0 0 1
    outer loop
      vertex 0.522104 -3.96578 1
      vertex 1.17474 -8.923 1
      vertex 1.03528 -3.8637 1
    endloop
  endfacet
  facet normal -0 0 1
    outer loop
      vertex 0 -4 1
      vertex 1.17474 -8.923 1
      vertex 0.522104 -3.96578 1
    endloop
  endfacet
  facet normal 0 0 1
    outer loop
      vertex 0 -4 1
      vertex 0 -9 1
      vertex 1.17474 -8.923 1
    endloop
  endfacet
  facet normal 0 0 1
    outer loop
      vertex -0.522104 -3.96578 1
      vertex 0 -9 1
      vertex 0 -4 1
    endloop
  endfacet
  facet normal 0 0 1
    outer loop
      vertex -1.17474 -8.923 1
      vertex -0.522104 -3.96578 1
      vertex -1.03528 -3.8637 1
    endloop
  endfacet
  facet normal 0 0 1
    outer loop
      vertex -0.522104 -3.96578 1
      vertex -1.17474 -8.923 1
      vertex 0 -9 1
    endloop
  endfacet
  facet normal 0 0 1
    outer loop
      vertex -2.32937 -8.69333 1
      vertex -1.03528 -3.8637 1
      vertex -1.53073 -3.69552 1
    endloop
  endfacet
  facet normal 0 0 1
    outer loop
      vertex -3.44415 -8.31492 1
      vertex -1.53073 -3.69552 1
      vertex -2 -3.4641 1
    endloop
  endfacet
  facet normal 0 0 1
    outer loop
      vertex -1.03528 -3.8637 1
      vertex -2.32937 -8.69333 1
      vertex -1.17474 -8.923 1
    endloop
  endfacet
  facet normal 0 0 1
    outer loop
      vertex -4.5 -7.79423 1
      vertex -2 -3.4641 1
      vertex -2.43505 -3.17341 1
    endloop
  endfacet
  facet normal 0 0 1
    outer loop
      vertex -5.47885 -7.14018 1
      vertex -2.43505 -3.17341 1
      vertex -2.82843 -2.82843 1
    endloop
  endfacet
  facet normal 0 0 1
    outer loop
      vertex -6.36396 -6.36396 1
      vertex -2.82843 -2.82843 1
      vertex -3.17341 -2.43505 1
    endloop
  endfacet
  facet normal 0 0 1
    outer loop
      vertex -1.53073 -3.69552 1
      vertex -3.44415 -8.31492 1
      vertex -2.32937 -8.69333 1
    endloop
  endfacet
  facet normal 0 0 1
    outer loop
      vertex -7.14018 -5.47885 1
      vertex -3.17341 -2.43505 1
      vertex -3.4641 -2 1
    endloop
  endfacet
  facet normal 0 0 1
    outer loop
      vertex -7.79423 -4.5 1
      vertex -3.4641 -2 1
      vertex -3.69552 -1.53073 1
    endloop
  endfacet
  facet normal 0 0 1
    outer loop
      vertex -8.31492 -3.44415 1
      vertex -3.69552 -1.53073 1
      vertex -3.8637 -1.03528 1
    endloop
  endfacet
  facet normal 0 0 1
    outer loop
      vertex -8.69333 -2.32937 1
      vertex -3.8637 -1.03528 1
      vertex -3.96578 -0.522104 1
    endloop
  endfacet
  facet normal 0 0 1
    outer loop
      vertex -2 -3.4641 1
      vertex -4.5 -7.79423 1
      vertex -3.44415 -8.31492 1
    endloop
  endfacet
  facet normal 0 0 1
    outer loop
      vertex -8.923 -1.17474 1
      vertex -3.96578 -0.522104 1
      vertex -4 0 1
    endloop
  endfacet
  facet normal 0 0 1
    outer loop
      vertex -3.4641 2 1
      vertex -7.79423 4.5 1
      vertex -3.69552 1.53073 1
    endloop
  endfacet
  facet normal -0 0 1
    outer loop
      vertex -8.31492 3.44415 1
      vertex -3.69552 1.53073 1
      vertex -7.79423 4.5 1
    endloop
  endfacet
  facet normal 0 0 1
    outer loop
      vertex -2.43505 -3.17341 1
      vertex -5.47885 -7.14018 1
      vertex -4.5 -7.79423 1
    endloop
  endfacet
  facet normal 0 0 1
    outer loop
      vertex -3.69552 1.53073 1
      vertex -8.31492 3.44415 1
      vertex -3.8637 1.03528 1
    endloop
  endfacet
  facet normal 0 0 1
    outer loop
      vertex -2.82843 -2.82843 1
      vertex -6.36396 -6.36396 1
      vertex -5.47885 -7.14018 1
    endloop
  endfacet
  facet normal -0 0 1
    outer loop
      vertex -8.69333 2.32937 1
      vertex -3.8637 1.03528 1
      vertex -8.31492 3.44415 1
    endloop
  endfacet
  facet normal 0 0 1
    outer loop
      vertex -3.17341 -2.43505 1
      vertex -7.14018 -5.47885 1
      vertex -6.36396 -6.36396 1
    endloop
  endfacet
  facet normal 0 0 1
    outer loop
      vertex -3.8637 1.03528 1
      vertex -8.69333 2.32937 1
      vertex -3.96578 0.522104 1
    endloop
  endfacet
  facet normal 0 0 1
    outer loop
      vertex -3.4641 -2 1
      vertex -7.79423 -4.5 1
      vertex -7.14018 -5.47885 1
    endloop
  endfacet
  facet normal -0 0 1
    outer loop
      vertex -8.923 1.17474 1
      vertex -3.96578 0.522104 1
      vertex -8.69333 2.32937 1
    endloop
  endfacet
  facet normal 0 0 1
    outer loop
      vertex -3.69552 -1.53073 1
      vertex -8.31492 -3.44415 1
      vertex -7.79423 -4.5 1
    endloop
  endfacet
  facet normal 0 0 1
    outer loop
      vertex -3.96578 0.522104 1
      vertex -8.923 1.17474 1
      vertex -4 0 1
    endloop
  endfacet
  facet normal 0 0 1
    outer loop
      vertex -3.8637 -1.03528 1
      vertex -8.69333 -2.32937 1
      vertex -8.31492 -3.44415 1
    endloop
  endfacet
  facet normal 0 0 1
    outer loop
      vertex -9 0 1
      vertex -4 0 1
      vertex -8.923 1.17474 1
    endloop
  endfacet
  facet normal 0 0 1
    outer loop
      vertex -3.96578 -0.522104 1
      vertex -8.923 -1.17474 1
      vertex -8.69333 -2.32937 1
    endloop
  endfacet
  facet normal 0 0 1
    outer loop
      vertex -4 0 1
      vertex -9 0 1
      vertex -8.923 -1.17474 1
    endloop
  endfacet
  facet normal -0.751839 -0.659347 0
    outer loop
      vertex -2.82843 -2.82843 1
      vertex -3.17341 -2.43505 2.5
      vertex -3.17341 -2.43505 1
    endloop
  endfacet
  facet normal -0.751839 -0.659347 0
    outer loop
      vertex -3.17341 -2.43505 2.5
      vertex -2.82843 -2.82843 1
      vertex -2.82843 -2.82843 2.5
    endloop
  endfacet
  facet normal 0.980785 0.195091 0
    outer loop
      vertex 3.96578 0.522104 2.5
      vertex 3.8637 1.03528 1
      vertex 3.8637 1.03528 2.5
    endloop
  endfacet
  facet normal 0.980785 0.195091 0
    outer loop
      vertex 3.8637 1.03528 1
      vertex 3.96578 0.522104 2.5
      vertex 3.96578 0.522104 1
    endloop
  endfacet
  facet normal 0.94693 0.32144 0
    outer loop
      vertex 3.8637 1.03528 2.5
      vertex 3.69552 1.53073 1
      vertex 3.69552 1.53073 2.5
    endloop
  endfacet
  facet normal 0.94693 0.32144 0
    outer loop
      vertex 3.69552 1.53073 1
      vertex 3.8637 1.03528 2.5
      vertex 3.8637 1.03528 1
    endloop
  endfacet
  facet normal 0.751839 0.659347 0
    outer loop
      vertex 3.17341 2.43505 2.5
      vertex 2.82843 2.82843 1
      vertex 2.82843 2.82843 2.5
    endloop
  endfacet
  facet normal 0.751839 0.659347 0
    outer loop
      vertex 2.82843 2.82843 1
      vertex 3.17341 2.43505 2.5
      vertex 3.17341 2.43505 1
    endloop
  endfacet
  facet normal 0.659347 0.751839 -0
    outer loop
      vertex 2.82843 2.82843 1
      vertex 2.43505 3.17341 2.5
      vertex 2.82843 2.82843 2.5
    endloop
  endfacet
  facet normal 0.659347 0.751839 0
    outer loop
      vertex 2.43505 3.17341 2.5
      vertex 2.82843 2.82843 1
      vertex 2.43505 3.17341 1
    endloop
  endfacet
  facet normal 0.32144 0.94693 -0
    outer loop
      vertex 1.53073 3.69552 1
      vertex 1.03528 3.8637 2.5
      vertex 1.53073 3.69552 2.5
    endloop
  endfacet
  facet normal 0.32144 0.94693 0
    outer loop
      vertex 1.03528 3.8637 2.5
      vertex 1.53073 3.69552 1
      vertex 1.03528 3.8637 1
    endloop
  endfacet
  facet normal 0.195091 0.980785 -0
    outer loop
      vertex 1.03528 3.8637 1
      vertex 0.522104 3.96578 2.5
      vertex 1.03528 3.8637 2.5
    endloop
  endfacet
  facet normal 0.195091 0.980785 0
    outer loop
      vertex 0.522104 3.96578 2.5
      vertex 1.03528 3.8637 1
      vertex 0.522104 3.96578 1
    endloop
  endfacet
  facet normal -0.94693 0.32144 0
    outer loop
      vertex -3.8637 1.03528 1
      vertex -3.69552 1.53073 2.5
      vertex -3.69552 1.53073 1
    endloop
  endfacet
  facet normal -0.94693 0.32144 0
    outer loop
      vertex -3.69552 1.53073 2.5
      vertex -3.8637 1.03528 1
      vertex -3.8637 1.03528 2.5
    endloop
  endfacet
  facet normal -0.980785 0.195091 0
    outer loop
      vertex -3.96578 0.522104 1
      vertex -3.8637 1.03528 2.5
      vertex -3.8637 1.03528 1
    endloop
  endfacet
  facet normal -0.980785 0.195091 0
    outer loop
      vertex -3.8637 1.03528 2.5
      vertex -3.96578 0.522104 1
      vertex -3.96578 0.522104 2.5
    endloop
  endfacet
  facet normal -0.831471 0.555569 0
    outer loop
      vertex -3.4641 2 1
      vertex -3.17341 2.43505 2.5
      vertex -3.17341 2.43505 1
    endloop
  endfacet
  facet normal -0.831471 0.555569 0
    outer loop
      vertex -3.17341 2.43505 2.5
      vertex -3.4641 2 1
      vertex -3.4641 2 2.5
    endloop
  endfacet
  facet normal -0.195091 0.980785 0
    outer loop
      vertex -0.522104 3.96578 1
      vertex -1.03528 3.8637 2.5
      vertex -0.522104 3.96578 2.5
    endloop
  endfacet
  facet normal -0.195091 0.980785 0
    outer loop
      vertex -1.03528 3.8637 2.5
      vertex -0.522104 3.96578 1
      vertex -1.03528 3.8637 1
    endloop
  endfacet
  facet normal -0.555569 0.831471 0
    outer loop
      vertex -2 3.4641 1
      vertex -2.43505 3.17341 2.5
      vertex -2 3.4641 2.5
    endloop
  endfacet
  facet normal -0.555569 0.831471 0
    outer loop
      vertex -2.43505 3.17341 2.5
      vertex -2 3.4641 1
      vertex -2.43505 3.17341 1
    endloop
  endfacet
  facet normal -0.442289 0.896872 0
    outer loop
      vertex -1.53073 3.69552 1
      vertex -2 3.4641 2.5
      vertex -1.53073 3.69552 2.5
    endloop
  endfacet
  facet normal -0.442289 0.896872 0
    outer loop
      vertex -2 3.4641 2.5
      vertex -1.53073 3.69552 1
      vertex -2 3.4641 1
    endloop
  endfacet
  facet normal 0.997859 -0.0654035 0
    outer loop
      vertex 3.96578 -0.522104 2.5
      vertex 4 0 1
      vertex 4 0 2.5
    endloop
  endfacet
  facet normal 0.997859 -0.0654035 0
    outer loop
      vertex 4 0 1
      vertex 3.96578 -0.522104 2.5
      vertex 3.96578 -0.522104 1
    endloop
  endfacet
  facet normal 0.0654035 -0.997859 0
    outer loop
      vertex 0 -4 1
      vertex 0.522104 -3.96578 2.5
      vertex 0 -4 2.5
    endloop
  endfacet
  facet normal 0.0654035 -0.997859 0
    outer loop
      vertex 0.522104 -3.96578 2.5
      vertex 0 -4 1
      vertex 0.522104 -3.96578 1
    endloop
  endfacet
  facet normal 0.195091 -0.980785 0
    outer loop
      vertex 0.522104 -3.96578 1
      vertex 1.03528 -3.8637 2.5
      vertex 0.522104 -3.96578 2.5
    endloop
  endfacet
  facet normal 0.195091 -0.980785 0
    outer loop
      vertex 1.03528 -3.8637 2.5
      vertex 0.522104 -3.96578 1
      vertex 1.03528 -3.8637 1
    endloop
  endfacet
  facet normal 0.32144 -0.94693 0
    outer loop
      vertex 1.03528 -3.8637 1
      vertex 1.53073 -3.69552 2.5
      vertex 1.03528 -3.8637 2.5
    endloop
  endfacet
  facet normal 0.32144 -0.94693 0
    outer loop
      vertex 1.53073 -3.69552 2.5
      vertex 1.03528 -3.8637 1
      vertex 1.53073 -3.69552 1
    endloop
  endfacet
  facet normal 0.659347 -0.751839 0
    outer loop
      vertex 2.43505 -3.17341 1
      vertex 2.82843 -2.82843 2.5
      vertex 2.43505 -3.17341 2.5
    endloop
  endfacet
  facet normal 0.659347 -0.751839 0
    outer loop
      vertex 2.82843 -2.82843 2.5
      vertex 2.43505 -3.17341 1
      vertex 2.82843 -2.82843 1
    endloop
  endfacet
  facet normal -0.32144 -0.94693 0
    outer loop
      vertex -1.53073 -3.69552 1
      vertex -1.03528 -3.8637 2.5
      vertex -1.53073 -3.69552 2.5
    endloop
  endfacet
  facet normal -0.32144 -0.94693 -0
    outer loop
      vertex -1.03528 -3.8637 2.5
      vertex -1.53073 -3.69552 1
      vertex -1.03528 -3.8637 1
    endloop
  endfacet
  facet normal -0.55557 -0.83147 0
    outer loop
      vertex -2.43505 -3.17341 1
      vertex -2 -3.4641 2.5
      vertex -2.43505 -3.17341 2.5
    endloop
  endfacet
  facet normal -0.55557 -0.83147 -0
    outer loop
      vertex -2 -3.4641 2.5
      vertex -2.43505 -3.17341 1
      vertex -2 -3.4641 1
    endloop
  endfacet
  facet normal -0.980785 -0.195091 0
    outer loop
      vertex -3.8637 -1.03528 1
      vertex -3.96578 -0.522104 2.5
      vertex -3.96578 -0.522104 1
    endloop
  endfacet
  facet normal -0.980785 -0.195091 0
    outer loop
      vertex -3.96578 -0.522104 2.5
      vertex -3.8637 -1.03528 1
      vertex -3.8637 -1.03528 2.5
    endloop
  endfacet
  facet normal -0.896872 -0.442289 0
    outer loop
      vertex -3.4641 -2 1
      vertex -3.69552 -1.53073 2.5
      vertex -3.69552 -1.53073 1
    endloop
  endfacet
  facet normal -0.896872 -0.442289 0
    outer loop
      vertex -3.69552 -1.53073 2.5
      vertex -3.4641 -2 1
      vertex -3.4641 -2 2.5
    endloop
  endfacet
  facet normal 0.980785 -0.195091 0
    outer loop
      vertex 3.8637 -1.03528 2.5
      vertex 3.96578 -0.522104 1
      vertex 3.96578 -0.522104 2.5
    endloop
  endfacet
  facet normal 0.980785 -0.195091 0
    outer loop
      vertex 3.96578 -0.522104 1
      vertex 3.8637 -1.03528 2.5
      vertex 3.8637 -1.03528 1
    endloop
  endfacet
  facet normal 0.896873 -0.442289 0
    outer loop
      vertex 3.4641 -2 2.5
      vertex 3.69552 -1.53073 1
      vertex 3.69552 -1.53073 2.5
    endloop
  endfacet
  facet normal 0.896873 -0.442289 0
    outer loop
      vertex 3.69552 -1.53073 1
      vertex 3.4641 -2 2.5
      vertex 3.4641 -2 1
    endloop
  endfacet
  facet normal 0.442289 -0.896873 0
    outer loop
      vertex 1.53073 -3.69552 1
      vertex 2 -3.4641 2.5
      vertex 1.53073 -3.69552 2.5
    endloop
  endfacet
  facet normal 0.442289 -0.896873 0
    outer loop
      vertex 2 -3.4641 2.5
      vertex 1.53073 -3.69552 1
      vertex 2 -3.4641 1
    endloop
  endfacet
  facet normal 0.751839 -0.659347 0
    outer loop
      vertex 2.82843 -2.82843 2.5
      vertex 3.17341 -2.43505 1
      vertex 3.17341 -2.43505 2.5
    endloop
  endfacet
  facet normal 0.751839 -0.659347 0
    outer loop
      vertex 3.17341 -2.43505 1
      vertex 2.82843 -2.82843 2.5
      vertex 2.82843 -2.82843 1
    endloop
  endfacet
  facet normal -0.195091 -0.980785 0
    outer loop
      vertex -1.03528 -3.8637 1
      vertex -0.522104 -3.96578 2.5
      vertex -1.03528 -3.8637 2.5
    endloop
  endfacet
  facet normal -0.195091 -0.980785 -0
    outer loop
      vertex -0.522104 -3.96578 2.5
      vertex -1.03528 -3.8637 1
      vertex -0.522104 -3.96578 1
    endloop
  endfacet
  facet normal -0.94693 -0.32144 0
    outer loop
      vertex -3.69552 -1.53073 1
      vertex -3.8637 -1.03528 2.5
      vertex -3.8637 -1.03528 1
    endloop
  endfacet
  facet normal -0.94693 -0.32144 0
    outer loop
      vertex -3.8637 -1.03528 2.5
      vertex -3.69552 -1.53073 1
      vertex -3.69552 -1.53073 2.5
    endloop
  endfacet
  facet normal -0.831471 -0.555569 0
    outer loop
      vertex -3.17341 -2.43505 1
      vertex -3.4641 -2 2.5
      vertex -3.4641 -2 1
    endloop
  endfacet
  facet normal -0.831471 -0.555569 0
    outer loop
      vertex -3.4641 -2 2.5
      vertex -3.17341 -2.43505 1
      vertex -3.17341 -2.43505 2.5
    endloop
  endfacet
  facet normal 0.555571 0.831469 -0
    outer loop
      vertex 5.47885 7.14018 -1
      vertex 4.5 7.79423 1
      vertex 5.47885 7.14018 1
    endloop
  endfacet
  facet normal 0.555571 0.831469 0
    outer loop
      vertex 4.5 7.79423 1
      vertex 5.47885 7.14018 -1
      vertex 4.5 7.79423 -1
    endloop
  endfacet
  facet normal -0.321439 0.94693 0
    outer loop
      vertex -2.32937 8.69333 -1
      vertex -3.44415 8.31492 1
      vertex -2.32937 8.69333 1
    endloop
  endfacet
  facet normal -0.321439 0.94693 0
    outer loop
      vertex -3.44415 8.31492 1
      vertex -2.32937 8.69333 -1
      vertex -3.44415 8.31492 -1
    endloop
  endfacet
  facet normal -0.896873 0.442289 0
    outer loop
      vertex -8.31492 3.44415 -1
      vertex -7.79423 4.5 1
      vertex -7.79423 4.5 -1
    endloop
  endfacet
  facet normal -0.896873 0.442289 0
    outer loop
      vertex -7.79423 4.5 1
      vertex -8.31492 3.44415 -1
      vertex -8.31492 3.44415 1
    endloop
  endfacet
  facet normal 0.896873 0.442289 0
    outer loop
      vertex 8.31492 3.44415 1
      vertex 7.79423 4.5 -1
      vertex 7.79423 4.5 1
    endloop
  endfacet
  facet normal 0.896873 0.442289 0
    outer loop
      vertex 7.79423 4.5 -1
      vertex 8.31492 3.44415 1
      vertex 8.31492 3.44415 -1
    endloop
  endfacet
  facet normal 0.83147 0.55557 0
    outer loop
      vertex 7.79423 4.5 1
      vertex 7.14018 5.47885 -1
      vertex 7.14018 5.47885 1
    endloop
  endfacet
  facet normal 0.83147 0.55557 0
    outer loop
      vertex 7.14018 5.47885 -1
      vertex 7.79423 4.5 1
      vertex 7.79423 4.5 -1
    endloop
  endfacet
  facet normal 0.442288 0.896873 -0
    outer loop
      vertex 4.5 7.79423 -1
      vertex 3.44415 8.31492 1
      vertex 4.5 7.79423 1
    endloop
  endfacet
  facet normal 0.442288 0.896873 0
    outer loop
      vertex 3.44415 8.31492 1
      vertex 4.5 7.79423 -1
      vertex 3.44415 8.31492 -1
    endloop
  endfacet
  facet normal 0.0654036 0.997859 -0
    outer loop
      vertex 1.17474 8.923 -1
      vertex 0 9 1
      vertex 1.17474 8.923 1
    endloop
  endfacet
  facet normal 0.0654036 0.997859 0
    outer loop
      vertex 0 9 1
      vertex 1.17474 8.923 -1
      vertex 0 9 -1
    endloop
  endfacet
  facet normal -0.997859 0.0654036 0
    outer loop
      vertex -9 0 -1
      vertex -8.923 1.17474 1
      vertex -8.923 1.17474 -1
    endloop
  endfacet
  facet normal -0.997859 0.0654036 0
    outer loop
      vertex -8.923 1.17474 1
      vertex -9 0 -1
      vertex -9 0 1
    endloop
  endfacet
  facet normal -0.75184 0.659346 0
    outer loop
      vertex -7.14018 5.47885 -1
      vertex -6.36396 6.36396 1
      vertex -6.36396 6.36396 -1
    endloop
  endfacet
  facet normal -0.75184 0.659346 0
    outer loop
      vertex -6.36396 6.36396 1
      vertex -7.14018 5.47885 -1
      vertex -7.14018 5.47885 1
    endloop
  endfacet
  facet normal -0.0654036 0.997859 0
    outer loop
      vertex 0 9 -1
      vertex -1.17474 8.923 1
      vertex 0 9 1
    endloop
  endfacet
  facet normal -0.0654036 0.997859 0
    outer loop
      vertex -1.17474 8.923 1
      vertex 0 9 -1
      vertex -1.17474 8.923 -1
    endloop
  endfacet
  facet normal -0.659346 0.75184 0
    outer loop
      vertex -5.47885 7.14018 -1
      vertex -6.36396 6.36396 1
      vertex -5.47885 7.14018 1
    endloop
  endfacet
  facet normal -0.659346 0.75184 0
    outer loop
      vertex -6.36396 6.36396 1
      vertex -5.47885 7.14018 -1
      vertex -6.36396 6.36396 -1
    endloop
  endfacet
  facet normal 0.997859 0.0654036 0
    outer loop
      vertex 9 0 1
      vertex 8.923 1.17474 -1
      vertex 8.923 1.17474 1
    endloop
  endfacet
  facet normal 0.997859 0.0654036 0
    outer loop
      vertex 8.923 1.17474 -1
      vertex 9 0 1
      vertex 9 0 -1
    endloop
  endfacet
  facet normal 0.94693 -0.321439 0
    outer loop
      vertex 8.31492 -3.44415 1
      vertex 8.69333 -2.32937 -1
      vertex 8.69333 -2.32937 1
    endloop
  endfacet
  facet normal 0.94693 -0.321439 0
    outer loop
      vertex 8.69333 -2.32937 -1
      vertex 8.31492 -3.44415 1
      vertex 8.31492 -3.44415 -1
    endloop
  endfacet
  facet normal 0.555571 -0.831469 0
    outer loop
      vertex 4.5 -7.79423 -1
      vertex 5.47885 -7.14018 1
      vertex 4.5 -7.79423 1
    endloop
  endfacet
  facet normal 0.555571 -0.831469 0
    outer loop
      vertex 5.47885 -7.14018 1
      vertex 4.5 -7.79423 -1
      vertex 5.47885 -7.14018 -1
    endloop
  endfacet
  facet normal -0.0654036 -0.997859 0
    outer loop
      vertex -1.17474 -8.923 -1
      vertex 0 -9 1
      vertex -1.17474 -8.923 1
    endloop
  endfacet
  facet normal -0.0654036 -0.997859 -0
    outer loop
      vertex 0 -9 1
      vertex -1.17474 -8.923 -1
      vertex 0 -9 -1
    endloop
  endfacet
  facet normal -0.659346 -0.75184 0
    outer loop
      vertex -6.36396 -6.36396 -1
      vertex -5.47885 -7.14018 1
      vertex -6.36396 -6.36396 1
    endloop
  endfacet
  facet normal -0.659346 -0.75184 -0
    outer loop
      vertex -5.47885 -7.14018 1
      vertex -6.36396 -6.36396 -1
      vertex -5.47885 -7.14018 -1
    endloop
  endfacet
  facet normal -0.997859 -0.0654036 0
    outer loop
      vertex -8.923 -1.17474 -1
      vertex -9 0 1
      vertex -9 0 -1
    endloop
  endfacet
  facet normal -0.997859 -0.0654036 0
    outer loop
      vertex -9 0 1
      vertex -8.923 -1.17474 -1
      vertex -8.923 -1.17474 1
    endloop
  endfacet
  facet normal 0 0 -1
    outer loop
      vertex 8.923 -1.17474 -1
      vertex 8.923 1.17474 -1
      vertex 9 0 -1
    endloop
  endfacet
  facet normal 0 0 -1
    outer loop
      vertex 8.69333 -2.32937 -1
      vertex 8.923 1.17474 -1
      vertex 8.923 -1.17474 -1
    endloop
  endfacet
  facet normal 0 0 -1
    outer loop
      vertex 8.69333 -2.32937 -1
      vertex 8.69333 2.32937 -1
      vertex 8.923 1.17474 -1
    endloop
  endfacet
  facet normal 0 0 -1
    outer loop
      vertex 8.31492 -3.44415 -1
      vertex 8.69333 2.32937 -1
      vertex 8.69333 -2.32937 -1
    endloop
  endfacet
  facet normal 0 0 -1
    outer loop
      vertex 8.31492 -3.44415 -1
      vertex 8.31492 3.44415 -1
      vertex 8.69333 2.32937 -1
    endloop
  endfacet
  facet normal 0 0 -1
    outer loop
      vertex 7.79423 -4.5 -1
      vertex 8.31492 3.44415 -1
      vertex 8.31492 -3.44415 -1
    endloop
  endfacet
  facet normal 0 0 -1
    outer loop
      vertex 7.79423 -4.5 -1
      vertex 7.79423 4.5 -1
      vertex 8.31492 3.44415 -1
    endloop
  endfacet
  facet normal 0 0 -1
    outer loop
      vertex 7.14018 -5.47885 -1
      vertex 7.79423 4.5 -1
      vertex 7.79423 -4.5 -1
    endloop
  endfacet
  facet normal 0 0 -1
    outer loop
      vertex 7.14018 -5.47885 -1
      vertex 7.14018 5.47885 -1
      vertex 7.79423 4.5 -1
    endloop
  endfacet
  facet normal 0 0 -1
    outer loop
      vertex 6.36396 -6.36396 -1
      vertex 7.14018 5.47885 -1
      vertex 7.14018 -5.47885 -1
    endloop
  endfacet
  facet normal 0 0 -1
    outer loop
      vertex 6.36396 -6.36396 -1
      vertex 6.36396 6.36396 -1
      vertex 7.14018 5.47885 -1
    endloop
  endfacet
  facet normal 0 0 -1
    outer loop
      vertex 5.47885 -7.14018 -1
      vertex 6.36396 6.36396 -1
      vertex 6.36396 -6.36396 -1
    endloop
  endfacet
  facet normal 0 0 -1
    outer loop
      vertex 5.47885 -7.14018 -1
      vertex 5.47885 7.14018 -1
      vertex 6.36396 6.36396 -1
    endloop
  endfacet
  facet normal 0 0 -1
    outer loop
      vertex 4.5 -7.79423 -1
      vertex 5.47885 7.14018 -1
      vertex 5.47885 -7.14018 -1
    endloop
  endfacet
  facet normal 0 0 -1
    outer loop
      vertex 4.5 -7.79423 -1
      vertex 4.5 7.79423 -1
      vertex 5.47885 7.14018 -1
    endloop
  endfacet
  facet normal 0 0 -1
    outer loop
      vertex 3.44415 -8.31492 -1
      vertex 4.5 7.79423 -1
      vertex 4.5 -7.79423 -1
    endloop
  endfacet
  facet normal 0 0 -1
    outer loop
      vertex 3.44415 -8.31492 -1
      vertex 3.44415 8.31492 -1
      vertex 4.5 7.79423 -1
    endloop
  endfacet
  facet normal 0 0 -1
    outer loop
      vertex 2.32937 -8.69333 -1
      vertex 3.44415 8.31492 -1
      vertex 3.44415 -8.31492 -1
    endloop
  endfacet
  facet normal 0 0 -1
    outer loop
      vertex 2.32937 -8.69333 -1
      vertex 2.32937 8.69333 -1
      vertex 3.44415 8.31492 -1
    endloop
  endfacet
  facet normal 0 0 -1
    outer loop
      vertex 1.17474 -8.923 -1
      vertex 2.32937 8.69333 -1
      vertex 2.32937 -8.69333 -1
    endloop
  endfacet
  facet normal 0 0 -1
    outer loop
      vertex 1.17474 -8.923 -1
      vertex 1.17474 8.923 -1
      vertex 2.32937 8.69333 -1
    endloop
  endfacet
  facet normal 0 0 -1
    outer loop
      vertex 0 -9 -1
      vertex 1.17474 8.923 -1
      vertex 1.17474 -8.923 -1
    endloop
  endfacet
  facet normal 0 0 -1
    outer loop
      vertex 0 -9 -1
      vertex 0 9 -1
      vertex 1.17474 8.923 -1
    endloop
  endfacet
  facet normal 0 0 -1
    outer loop
      vertex -1.17474 -8.923 -1
      vertex 0 9 -1
      vertex 0 -9 -1
    endloop
  endfacet
  facet normal 0 0 -1
    outer loop
      vertex -1.17474 -8.923 -1
      vertex -1.17474 8.923 -1
      vertex 0 9 -1
    endloop
  endfacet
  facet normal 0 0 -1
    outer loop
      vertex -2.32937 -8.69333 -1
      vertex -1.17474 8.923 -1
      vertex -1.17474 -8.923 -1
    endloop
  endfacet
  facet normal 0 0 -1
    outer loop
      vertex -2.32937 -8.69333 -1
      vertex -2.32937 8.69333 -1
      vertex -1.17474 8.923 -1
    endloop
  endfacet
  facet normal 0 0 -1
    outer loop
      vertex -3.44415 -8.31492 -1
      vertex -2.32937 8.69333 -1
      vertex -2.32937 -8.69333 -1
    endloop
  endfacet
  facet normal 0 0 -1
    outer loop
      vertex -3.44415 -8.31492 -1
      vertex -3.44415 8.31492 -1
      vertex -2.32937 8.69333 -1
    endloop
  endfacet
  facet normal 0 0 -1
    outer loop
      vertex -3.44415 -8.31492 -1
      vertex -4.5 7.79423 -1
      vertex -3.44415 8.31492 -1
    endloop
  endfacet
  facet normal 0 0 -1
    outer loop
      vertex -4.5 -7.79423 -1
      vertex -4.5 7.79423 -1
      vertex -3.44415 -8.31492 -1
    endloop
  endfacet
  facet normal 0 0 -1
    outer loop
      vertex -5.47885 -7.14018 -1
      vertex -4.5 7.79423 -1
      vertex -4.5 -7.79423 -1
    endloop
  endfacet
  facet normal 0 0 -1
    outer loop
      vertex -5.47885 -7.14018 -1
      vertex -5.47885 7.14018 -1
      vertex -4.5 7.79423 -1
    endloop
  endfacet
  facet normal 0 0 -1
    outer loop
      vertex -6.36396 -6.36396 -1
      vertex -5.47885 7.14018 -1
      vertex -5.47885 -7.14018 -1
    endloop
  endfacet
  facet normal 0 0 -1
    outer loop
      vertex -6.36396 -6.36396 -1
      vertex -6.36396 6.36396 -1
      vertex -5.47885 7.14018 -1
    endloop
  endfacet
  facet normal 0 0 -1
    outer loop
      vertex -7.14018 -5.47885 -1
      vertex -6.36396 6.36396 -1
      vertex -6.36396 -6.36396 -1
    endloop
  endfacet
  facet normal 0 0 -1
    outer loop
      vertex -7.14018 -5.47885 -1
      vertex -7.14018 5.47885 -1
      vertex -6.36396 6.36396 -1
    endloop
  endfacet
  facet normal 0 0 -1
    outer loop
      vertex -7.79423 -4.5 -1
      vertex -7.14018 5.47885 -1
      vertex -7.14018 -5.47885 -1
    endloop
  endfacet
  facet normal 0 0 -1
    outer loop
      vertex -7.79423 -4.5 -1
      vertex -7.79423 4.5 -1
      vertex -7.14018 5.47885 -1
    endloop
  endfacet
  facet normal 0 0 -1
    outer loop
      vertex -8.31492 -3.44415 -1
      vertex -7.79423 4.5 -1
      vertex -7.79423 -4.5 -1
    endloop
  endfacet
  facet normal 0 0 -1
    outer loop
      vertex -8.31492 -3.44415 -1
      vertex -8.31492 3.44415 -1
      vertex -7.79423 4.5 -1
    endloop
  endfacet
  facet normal 0 0 -1
    outer loop
      vertex -8.69333 -2.32937 -1
      vertex -8.31492 3.44415 -1
      vertex -8.31492 -3.44415 -1
    endloop
  endfacet
  facet normal 0 0 -1
    outer loop
      vertex -8.69333 -2.32937 -1
      vertex -8.69333 2.32937 -1
      vertex -8.31492 3.44415 -1
    endloop
  endfacet
  facet normal 0 0 -1
    outer loop
      vertex -8.923 -1.17474 -1
      vertex -8.69333 2.32937 -1
      vertex -8.69333 -2.32937 -1
    endloop
  endfacet
  facet normal 0 0 -1
    outer loop
      vertex -8.923 -1.17474 -1
      vertex -8.923 1.17474 -1
      vertex -8.69333 2.32937 -1
    endloop
  endfacet
  facet normal 0 -0 -1
    outer loop
      vertex -8.923 1.17474 -1
      vertex -8.923 -1.17474 -1
      vertex -9 0 -1
    endloop
  endfacet
  facet normal 0.94693 0.321439 0
    outer loop
      vertex 8.69333 2.32937 1
      vertex 8.31492 3.44415 -1
      vertex 8.31492 3.44415 1
    endloop
  endfacet
  facet normal 0.94693 0.321439 0
    outer loop
      vertex 8.31492 3.44415 -1
      vertex 8.69333 2.32937 1
      vertex 8.69333 2.32937 -1
    endloop
  endfacet
  facet normal 0.75184 0.659346 0
    outer loop
      vertex 7.14018 5.47885 1
      vertex 6.36396 6.36396 -1
      vertex 6.36396 6.36396 1
    endloop
  endfacet
  facet normal 0.75184 0.659346 0
    outer loop
      vertex 6.36396 6.36396 -1
      vertex 7.14018 5.47885 1
      vertex 7.14018 5.47885 -1
    endloop
  endfacet
  facet normal 0.659346 0.75184 -0
    outer loop
      vertex 6.36396 6.36396 -1
      vertex 5.47885 7.14018 1
      vertex 6.36396 6.36396 1
    endloop
  endfacet
  facet normal 0.659346 0.75184 0
    outer loop
      vertex 5.47885 7.14018 1
      vertex 6.36396 6.36396 -1
      vertex 5.47885 7.14018 -1
    endloop
  endfacet
  facet normal 0.321439 0.94693 -0
    outer loop
      vertex 3.44415 8.31492 -1
      vertex 2.32937 8.69333 1
      vertex 3.44415 8.31492 1
    endloop
  endfacet
  facet normal 0.321439 0.94693 0
    outer loop
      vertex 2.32937 8.69333 1
      vertex 3.44415 8.31492 -1
      vertex 2.32937 8.69333 -1
    endloop
  endfacet
  facet normal 0.19509 0.980785 -0
    outer loop
      vertex 2.32937 8.69333 -1
      vertex 1.17474 8.923 1
      vertex 2.32937 8.69333 1
    endloop
  endfacet
  facet normal 0.19509 0.980785 0
    outer loop
      vertex 1.17474 8.923 1
      vertex 2.32937 8.69333 -1
      vertex 1.17474 8.923 -1
    endloop
  endfacet
  facet normal -0.94693 0.321439 0
    outer loop
      vertex -8.69333 2.32937 -1
      vertex -8.31492 3.44415 1
      vertex -8.31492 3.44415 -1
    endloop
  endfacet
  facet normal -0.94693 0.321439 0
    outer loop
      vertex -8.31492 3.44415 1
      vertex -8.69333 2.32937 -1
      vertex -8.69333 2.32937 1
    endloop
  endfacet
  facet normal -0.980785 0.19509 0
    outer loop
      vertex -8.923 1.17474 -1
      vertex -8.69333 2.32937 1
      vertex -8.69333 2.32937 -1
    endloop
  endfacet
  facet normal -0.980785 0.19509 0
    outer loop
      vertex -8.69333 2.32937 1
      vertex -8.923 1.17474 -1
      vertex -8.923 1.17474 1
    endloop
  endfacet
  facet normal -0.83147 0.55557 0
    outer loop
      vertex -7.79423 4.5 -1
      vertex -7.14018 5.47885 1
      vertex -7.14018 5.47885 -1
    endloop
  endfacet
  facet normal -0.83147 0.55557 0
    outer loop
      vertex -7.14018 5.47885 1
      vertex -7.79423 4.5 -1
      vertex -7.79423 4.5 1
    endloop
  endfacet
  facet normal -0.19509 0.980785 0
    outer loop
      vertex -1.17474 8.923 -1
      vertex -2.32937 8.69333 1
      vertex -1.17474 8.923 1
    endloop
  endfacet
  facet normal -0.19509 0.980785 0
    outer loop
      vertex -2.32937 8.69333 1
      vertex -1.17474 8.923 -1
      vertex -2.32937 8.69333 -1
    endloop
  endfacet
  facet normal -0.55557 0.83147 0
    outer loop
      vertex -4.5 7.79423 -1
      vertex -5.47885 7.14018 1
      vertex -4.5 7.79423 1
    endloop
  endfacet
  facet normal -0.55557 0.83147 0
    outer loop
      vertex -5.47885 7.14018 1
      vertex -4.5 7.79423 -1
      vertex -5.47885 7.14018 -1
    endloop
  endfacet
  facet normal -0.442289 0.896873 0
    outer loop
      vertex -3.44415 8.31492 -1
      vertex -4.5 7.79423 1
      vertex -3.44415 8.31492 1
    endloop
  endfacet
  facet normal -0.442289 0.896873 0
    outer loop
      vertex -4.5 7.79423 1
      vertex -3.44415 8.31492 -1
      vertex -4.5 7.79423 -1
    endloop
  endfacet
  facet normal 0.997859 -0.0654036 0
    outer loop
      vertex 8.923 -1.17474 1
      vertex 9 0 -1
      vertex 9 0 1
    endloop
  endfacet
  facet normal 0.997859 -0.0654036 0
    outer loop
      vertex 9 0 -1
      vertex 8.923 -1.17474 1
      vertex 8.923 -1.17474 -1
    endloop
  endfacet
  facet normal 0.0654036 -0.997859 0
    outer loop
      vertex 0 -9 -1
      vertex 1.17474 -8.923 1
      vertex 0 -9 1
    endloop
  endfacet
  facet normal 0.0654036 -0.997859 0
    outer loop
      vertex 1.17474 -8.923 1
      vertex 0 -9 -1
      vertex 1.17474 -8.923 -1
    endloop
  endfacet
  facet normal 0.831469 -0.555571 0
    outer loop
      vertex 7.14018 -5.47885 1
      vertex 7.79423 -4.5 -1
      vertex 7.79423 -4.5 1
    endloop
  endfacet
  facet normal 0.831469 -0.555571 0
    outer loop
      vertex 7.79423 -4.5 -1
      vertex 7.14018 -5.47885 1
      vertex 7.14018 -5.47885 -1
    endloop
  endfacet
  facet normal 0.896873 -0.442288 0
    outer loop
      vertex 7.79423 -4.5 1
      vertex 8.31492 -3.44415 -1
      vertex 8.31492 -3.44415 1
    endloop
  endfacet
  facet normal 0.896873 -0.442288 0
    outer loop
      vertex 8.31492 -3.44415 -1
      vertex 7.79423 -4.5 1
      vertex 7.79423 -4.5 -1
    endloop
  endfacet
  facet normal 0.19509 -0.980785 0
    outer loop
      vertex 1.17474 -8.923 -1
      vertex 2.32937 -8.69333 1
      vertex 1.17474 -8.923 1
    endloop
  endfacet
  facet normal 0.19509 -0.980785 0
    outer loop
      vertex 2.32937 -8.69333 1
      vertex 1.17474 -8.923 -1
      vertex 2.32937 -8.69333 -1
    endloop
  endfacet
  facet normal 0.321439 -0.94693 0
    outer loop
      vertex 2.32937 -8.69333 -1
      vertex 3.44415 -8.31492 1
      vertex 2.32937 -8.69333 1
    endloop
  endfacet
  facet normal 0.321439 -0.94693 0
    outer loop
      vertex 3.44415 -8.31492 1
      vertex 2.32937 -8.69333 -1
      vertex 3.44415 -8.31492 -1
    endloop
  endfacet
  facet normal 0.659346 -0.75184 0
    outer loop
      vertex 5.47885 -7.14018 -1
      vertex 6.36396 -6.36396 1
      vertex 5.47885 -7.14018 1
    endloop
  endfacet
  facet normal 0.659346 -0.75184 0
    outer loop
      vertex 6.36396 -6.36396 1
      vertex 5.47885 -7.14018 -1
      vertex 6.36396 -6.36396 -1
    endloop
  endfacet
  facet normal -0.321439 -0.94693 0
    outer loop
      vertex -3.44415 -8.31492 -1
      vertex -2.32937 -8.69333 1
      vertex -3.44415 -8.31492 1
    endloop
  endfacet
  facet normal -0.321439 -0.94693 -0
    outer loop
      vertex -2.32937 -8.69333 1
      vertex -3.44415 -8.31492 -1
      vertex -2.32937 -8.69333 -1
    endloop
  endfacet
  facet normal -0.442288 -0.896873 0
    outer loop
      vertex -4.5 -7.79423 -1
      vertex -3.44415 -8.31492 1
      vertex -4.5 -7.79423 1
    endloop
  endfacet
  facet normal -0.442288 -0.896873 -0
    outer loop
      vertex -3.44415 -8.31492 1
      vertex -4.5 -7.79423 -1
      vertex -3.44415 -8.31492 -1
    endloop
  endfacet
  facet normal -0.980785 -0.19509 0
    outer loop
      vertex -8.69333 -2.32937 -1
      vertex -8.923 -1.17474 1
      vertex -8.923 -1.17474 -1
    endloop
  endfacet
  facet normal -0.980785 -0.19509 0
    outer loop
      vertex -8.923 -1.17474 1
      vertex -8.69333 -2.32937 -1
      vertex -8.69333 -2.32937 1
    endloop
  endfacet
  facet normal -0.75184 -0.659346 0
    outer loop
      vertex -6.36396 -6.36396 -1
      vertex -7.14018 -5.47885 1
      vertex -7.14018 -5.47885 -1
    endloop
  endfacet
  facet normal -0.75184 -0.659346 0
    outer loop
      vertex -7.14018 -5.47885 1
      vertex -6.36396 -6.36396 -1
      vertex -6.36396 -6.36396 1
    endloop
  endfacet
  facet normal -0.896873 -0.442289 0
    outer loop
      vertex -7.79423 -4.5 -1
      vertex -8.31492 -3.44415 1
      vertex -8.31492 -3.44415 -1
    endloop
  endfacet
  facet normal -0.896873 -0.442289 0
    outer loop
      vertex -8.31492 -3.44415 1
      vertex -7.79423 -4.5 -1
      vertex -7.79423 -4.5 1
    endloop
  endfacet
  facet normal 0.980785 0.19509 0
    outer loop
      vertex 8.923 1.17474 1
      vertex 8.69333 2.32937 -1
      vertex 8.69333 2.32937 1
    endloop
  endfacet
  facet normal 0.980785 0.19509 0
    outer loop
      vertex 8.69333 2.32937 -1
      vertex 8.923 1.17474 1
      vertex 8.923 1.17474 -1
    endloop
  endfacet
  facet normal 0.980785 -0.19509 0
    outer loop
      vertex 8.69333 -2.32937 1
      vertex 8.923 -1.17474 -1
      vertex 8.923 -1.17474 1
    endloop
  endfacet
  facet normal 0.980785 -0.19509 0
    outer loop
      vertex 8.923 -1.17474 -1
      vertex 8.69333 -2.32937 1
      vertex 8.69333 -2.32937 -1
    endloop
  endfacet
  facet normal 0.442288 -0.896873 0
    outer loop
      vertex 3.44415 -8.31492 -1
      vertex 4.5 -7.79423 1
      vertex 3.44415 -8.31492 1
    endloop
  endfacet
  facet normal 0.442288 -0.896873 0
    outer loop
      vertex 4.5 -7.79423 1
      vertex 3.44415 -8.31492 -1
      vertex 4.5 -7.79423 -1
    endloop
  endfacet
  facet normal 0.75184 -0.659346 0
    outer loop
      vertex 6.36396 -6.36396 1
      vertex 7.14018 -5.47885 -1
      vertex 7.14018 -5.47885 1
    endloop
  endfacet
  facet normal 0.75184 -0.659346 0
    outer loop
      vertex 7.14018 -5.47885 -1
      vertex 6.36396 -6.36396 1
      vertex 6.36396 -6.36396 -1
    endloop
  endfacet
  facet normal -0.19509 -0.980785 0
    outer loop
      vertex -2.32937 -8.69333 -1
      vertex -1.17474 -8.923 1
      vertex -2.32937 -8.69333 1
    endloop
  endfacet
  facet normal -0.19509 -0.980785 -0
    outer loop
      vertex -1.17474 -8.923 1
      vertex -2.32937 -8.69333 -1
      vertex -1.17474 -8.923 -1
    endloop
  endfacet
  facet normal -0.555571 -0.831469 0
    outer loop
      vertex -5.47885 -7.14018 -1
      vertex -4.5 -7.79423 1
      vertex -5.47885 -7.14018 1
    endloop
  endfacet
  facet normal -0.555571 -0.831469 -0
    outer loop
      vertex -4.5 -7.79423 1
      vertex -5.47885 -7.14018 -1
      vertex -4.5 -7.79423 -1
    endloop
  endfacet
  facet normal -0.94693 -0.321439 0
    outer loop
      vertex -8.31492 -3.44415 -1
      vertex -8.69333 -2.32937 1
      vertex -8.69333 -2.32937 -1
    endloop
  endfacet
  facet normal -0.94693 -0.321439 0
    outer loop
      vertex -8.69333 -2.32937 1
      vertex -8.31492 -3.44415 -1
      vertex -8.31492 -3.44415 1
    endloop
  endfacet
  facet normal -0.83147 -0.55557 0
    outer loop
      vertex -7.14018 -5.47885 -1
      vertex -7.79423 -4.5 1
      vertex -7.79423 -4.5 -1
    endloop
  endfacet
  facet normal -0.83147 -0.55557 0
    outer loop
      vertex -7.79423 -4.5 1
      vertex -7.14018 -5.47885 -1
      vertex -7.14018 -5.47885 1
    endloop
  endfacet
endsolid OpenSCAD_Model
