solid OpenSCAD_Model
  facet normal 0.997859 0.0654033 0
    outer loop
      vertex 13.5 0 1
      vertex 13.3845 1.7621 -1
      vertex 13.3845 1.7621 1
    endloop
  endfacet
  facet normal 0.997859 0.0654033 0
    outer loop
      vertex 13.3845 1.7621 -1
      vertex 13.5 0 1
      vertex 13.5 0 -1
    endloop
  endfacet
  facet normal 0.980785 0.19509 0
    outer loop
      vertex 13.3845 1.7621 1
      vertex 13.04 3.49406 -1
      vertex 13.04 3.49406 1
    endloop
  endfacet
  facet normal 0.980785 0.19509 0
    outer loop
      vertex 13.04 3.49406 -1
      vertex 13.3845 1.7621 1
      vertex 13.3845 1.7621 -1
    endloop
  endfacet
  facet normal 0.94693 0.32144 0
    outer loop
      vertex 13.04 3.49406 1
      vertex 12.4724 5.16623 -1
      vertex 12.4724 5.16623 1
    endloop
  endfacet
  facet normal 0.94693 0.32144 0
    outer loop
      vertex 12.4724 5.16623 -1
      vertex 13.04 3.49406 1
      vertex 13.04 3.49406 -1
    endloop
  endfacet
  facet normal 0.896873 0.442289 0
    outer loop
      vertex 12.4724 5.16623 1
      vertex 11.6913 6.75 -1
      vertex 11.6913 6.75 1
    endloop
  endfacet
  facet normal 0.896873 0.442289 0
    outer loop
      vertex 11.6913 6.75 -1
      vertex 12.4724 5.16623 1
      vertex 12.4724 5.16623 -1
    endloop
  endfacet
  facet normal 0.831469 0.555571 0
    outer loop
      vertex 11.6913 6.75 1
      vertex 10.7103 8.21828 -1
      vertex 10.7103 8.21828 1
    endloop
  endfacet
  facet normal 0.831469 0.555571 0
    outer loop
      vertex 10.7103 8.21828 -1
      vertex 11.6913 6.75 1
      vertex 11.6913 6.75 -1
    endloop
  endfacet
  facet normal 0.75184 0.659346 0
    outer loop
      vertex 10.7103 8.21828 1
      vertex 9.54594 9.54594 -1
      vertex 9.54594 9.54594 1
    endloop
  endfacet
  facet normal 0.75184 0.659346 0
    outer loop
      vertex 9.54594 9.54594 -1
      vertex 10.7103 8.21828 1
      vertex 10.7103 8.21828 -1
    endloop
  endfacet
  facet normal 0.659346 0.75184 -0
    outer loop
      vertex 9.54594 9.54594 -1
      vertex 8.21828 10.7103 1
      vertex 9.54594 9.54594 1
    endloop
  endfacet
  facet normal 0.659346 0.75184 0
    outer loop
      vertex 8.21828 10.7103 1
      vertex 9.54594 9.54594 -1
      vertex 8.21828 10.7103 -1
    endloop
  endfacet
  facet normal 0.555571 0.831469 -0
    outer loop
      vertex 8.21828 10.7103 -1
      vertex 6.75 11.6913 1
      vertex 8.21828 10.7103 1
    endloop
  endfacet
  facet normal 0.555571 0.831469 0
    outer loop
      vertex 6.75 11.6913 1
      vertex 8.21828 10.7103 -1
      vertex 6.75 11.6913 -1
    endloop
  endfacet
  facet normal 0.442289 0.896873 -0
    outer loop
      vertex 6.75 11.6913 -1
      vertex 5.16623 12.4724 1
      vertex 6.75 11.6913 1
    endloop
  endfacet
  facet normal 0.442289 0.896873 0
    outer loop
      vertex 5.16623 12.4724 1
      vertex 6.75 11.6913 -1
      vertex 5.16623 12.4724 -1
    endloop
  endfacet
  facet normal 0.32144 0.94693 -0
    outer loop
      vertex 5.16623 12.4724 -1
      vertex 3.49406 13.04 1
      vertex 5.16623 12.4724 1
    endloop
  endfacet
  facet normal 0.32144 0.94693 0
    outer loop
      vertex 3.49406 13.04 1
      vertex 5.16623 12.4724 -1
      vertex 3.49406 13.04 -1
    endloop
  endfacet
  facet normal 0.19509 0.980785 -0
    outer loop
      vertex 3.49406 13.04 -1
      vertex 1.7621 13.3845 1
      vertex 3.49406 13.04 1
    endloop
  endfacet
  facet normal 0.19509 0.980785 0
    outer loop
      vertex 1.7621 13.3845 1
      vertex 3.49406 13.04 -1
      vertex 1.7621 13.3845 -1
    endloop
  endfacet
  facet normal 0.0654033 0.997859 -0
    outer loop
      vertex 1.7621 13.3845 -1
      vertex 8.26637e-16 13.5 1
      vertex 1.7621 13.3845 1
    endloop
  endfacet
  facet normal 0.0654033 0.997859 0
    outer loop
      vertex 8.26637e-16 13.5 1
      vertex 1.7621 13.3845 -1
      vertex 8.26637e-16 13.5 -1
    endloop
  endfacet
  facet normal -0.0654033 0.997859 0
    outer loop
      vertex 8.26637e-16 13.5 -1
      vertex -1.7621 13.3845 1
      vertex 8.26637e-16 13.5 1
    endloop
  endfacet
  facet normal -0.0654033 0.997859 0
    outer loop
      vertex -1.7621 13.3845 1
      vertex 8.26637e-16 13.5 -1
      vertex -1.7621 13.3845 -1
    endloop
  endfacet
  facet normal -0.19509 0.980785 0
    outer loop
      vertex -1.7621 13.3845 -1
      vertex -3.49406 13.04 1
      vertex -1.7621 13.3845 1
    endloop
  endfacet
  facet normal -0.19509 0.980785 0
    outer loop
      vertex -3.49406 13.04 1
      vertex -1.7621 13.3845 -1
      vertex -3.49406 13.04 -1
    endloop
  endfacet
  facet normal -0.32144 0.94693 0
    outer loop
      vertex -3.49406 13.04 -1
      vertex -5.16623 12.4724 1
      vertex -3.49406 13.04 1
    endloop
  endfacet
  facet normal -0.32144 0.94693 0
    outer loop
      vertex -5.16623 12.4724 1
      vertex -3.49406 13.04 -1
      vertex -5.16623 12.4724 -1
    endloop
  endfacet
  facet normal -0.442289 0.896873 0
    outer loop
      vertex -5.16623 12.4724 -1
      vertex -6.75 11.6913 1
      vertex -5.16623 12.4724 1
    endloop
  endfacet
  facet normal -0.442289 0.896873 0
    outer loop
      vertex -6.75 11.6913 1
      vertex -5.16623 12.4724 -1
      vertex -6.75 11.6913 -1
    endloop
  endfacet
  facet normal -0.555571 0.831469 0
    outer loop
      vertex -6.75 11.6913 -1
      vertex -8.21828 10.7103 1
      vertex -6.75 11.6913 1
    endloop
  endfacet
  facet normal -0.555571 0.831469 0
    outer loop
      vertex -8.21828 10.7103 1
      vertex -6.75 11.6913 -1
      vertex -8.21828 10.7103 -1
    endloop
  endfacet
  facet normal -0.659346 0.75184 0
    outer loop
      vertex -8.21828 10.7103 -1
      vertex -9.54594 9.54594 1
      vertex -8.21828 10.7103 1
    endloop
  endfacet
  facet normal -0.659346 0.75184 0
    outer loop
      vertex -9.54594 9.54594 1
      vertex -8.21828 10.7103 -1
      vertex -9.54594 9.54594 -1
    endloop
  endfacet
  facet normal -0.75184 0.659346 0
    outer loop
      vertex -10.7103 8.21828 -1
      vertex -9.54594 9.54594 1
      vertex -9.54594 9.54594 -1
    endloop
  endfacet
  facet normal -0.75184 0.659346 0
    outer loop
      vertex -9.54594 9.54594 1
      vertex -10.7103 8.21828 -1
      vertex -10.7103 8.21828 1
    endloop
  endfacet
  facet normal -0.831469 0.555571 0
    outer loop
      vertex -11.6913 6.75 -1
      vertex -10.7103 8.21828 1
      vertex -10.7103 8.21828 -1
    endloop
  endfacet
  facet normal -0.831469 0.555571 0
    outer loop
      vertex -10.7103 8.21828 1
      vertex -11.6913 6.75 -1
      vertex -11.6913 6.75 1
    endloop
  endfacet
  facet normal -0.896873 0.442289 0
    outer loop
      vertex -12.4724 5.16623 -1
      vertex -11.6913 6.75 1
      vertex -11.6913 6.75 -1
    endloop
  endfacet
  facet normal -0.896873 0.442289 0
    outer loop
      vertex -11.6913 6.75 1
      vertex -12.4724 5.16623 -1
      vertex -12.4724 5.16623 1
    endloop
  endfacet
  facet normal -0.94693 0.32144 0
    outer loop
      vertex -13.04 3.49406 -1
      vertex -12.4724 5.16623 1
      vertex -12.4724 5.16623 -1
    endloop
  endfacet
  facet normal -0.94693 0.32144 0
    outer loop
      vertex -12.4724 5.16623 1
      vertex -13.04 3.49406 -1
      vertex -13.04 3.49406 1
    endloop
  endfacet
  facet normal -0.980785 0.19509 0
    outer loop
      vertex -13.3845 1.7621 -1
      vertex -13.04 3.49406 1
      vertex -13.04 3.49406 -1
    endloop
  endfacet
  facet normal -0.980785 0.19509 0
    outer loop
      vertex -13.04 3.49406 1
      vertex -13.3845 1.7621 -1
      vertex -13.3845 1.7621 1
    endloop
  endfacet
  facet normal -0.997859 0.0654033 0
    outer loop
      vertex -13.5 1.65327e-15 -1
      vertex -13.3845 1.7621 1
      vertex -13.3845 1.7621 -1
    endloop
  endfacet
  facet normal -0.997859 0.0654033 0
    outer loop
      vertex -13.3845 1.7621 1
      vertex -13.5 1.65327e-15 -1
      vertex -13.5 1.65327e-15 1
    endloop
  endfacet
  facet normal -0.997859 -0.0654033 0
    outer loop
      vertex -13.3845 -1.7621 -1
      vertex -13.5 1.65327e-15 1
      vertex -13.5 1.65327e-15 -1
    endloop
  endfacet
  facet normal -0.997859 -0.0654033 0
    outer loop
      vertex -13.5 1.65327e-15 1
      vertex -13.3845 -1.7621 -1
      vertex -13.3845 -1.7621 1
    endloop
  endfacet
  facet normal -0.980785 -0.19509 0
    outer loop
      vertex -13.04 -3.49406 -1
      vertex -13.3845 -1.7621 1
      vertex -13.3845 -1.7621 -1
    endloop
  endfacet
  facet normal -0.980785 -0.19509 0
    outer loop
      vertex -13.3845 -1.7621 1
      vertex -13.04 -3.49406 -1
      vertex -13.04 -3.49406 1
    endloop
  endfacet
  facet normal -0.94693 -0.32144 0
    outer loop
      vertex -12.4724 -5.16623 -1
      vertex -13.04 -3.49406 1
      vertex -13.04 -3.49406 -1
    endloop
  endfacet
  facet normal -0.94693 -0.32144 0
    outer loop
      vertex -13.04 -3.49406 1
      vertex -12.4724 -5.16623 -1
      vertex -12.4724 -5.16623 1
    endloop
  endfacet
  facet normal -0.896873 -0.442289 0
    outer loop
      vertex -11.6913 -6.75 -1
      vertex -12.4724 -5.16623 1
      vertex -12.4724 -5.16623 -1
    endloop
  endfacet
  facet normal -0.896873 -0.442289 0
    outer loop
      vertex -12.4724 -5.16623 1
      vertex -11.6913 -6.75 -1
      vertex -11.6913 -6.75 1
    endloop
  endfacet
  facet normal -0.831469 -0.555571 0
    outer loop
      vertex -10.7103 -8.21828 -1
      vertex -11.6913 -6.75 1
      vertex -11.6913 -6.75 -1
    endloop
  endfacet
  facet normal -0.831469 -0.555571 0
    outer loop
      vertex -11.6913 -6.75 1
      vertex -10.7103 -8.21828 -1
      vertex -10.7103 -8.21828 1
    endloop
  endfacet
  facet normal -0.75184 -0.659346 0
    outer loop
      vertex -9.54594 -9.54594 -1
      vertex -10.7103 -8.21828 1
      vertex -10.7103 -8.21828 -1
    endloop
  endfacet
  facet normal -0.75184 -0.659346 0
    outer loop
      vertex -10.7103 -8.21828 1
      vertex -9.54594 -9.54594 -1
      vertex -9.54594 -9.54594 1
    endloop
  endfacet
  facet normal -0.659346 -0.75184 0
    outer loop
      vertex -9.54594 -9.54594 -1
      vertex -8.21828 -10.7103 1
      vertex -9.54594 -9.54594 1
    endloop
  endfacet
  facet normal -0.659346 -0.75184 -0
    outer loop
      vertex -8.21828 -10.7103 1
      vertex -9.54594 -9.54594 -1
      vertex -8.21828 -10.7103 -1
    endloop
  endfacet
  facet normal -0.555571 -0.831469 0
    outer loop
      vertex -8.21828 -10.7103 -1
      vertex -6.75 -11.6913 1
      vertex -8.21828 -10.7103 1
    endloop
  endfacet
  facet normal -0.555571 -0.831469 -0
    outer loop
      vertex -6.75 -11.6913 1
      vertex -8.21828 -10.7103 -1
      vertex -6.75 -11.6913 -1
    endloop
  endfacet
  facet normal -0.442289 -0.896873 0
    outer loop
      vertex -6.75 -11.6913 -1
      vertex -5.16623 -12.4724 1
      vertex -6.75 -11.6913 1
    endloop
  endfacet
  facet normal -0.442289 -0.896873 -0
    outer loop
      vertex -5.16623 -12.4724 1
      vertex -6.75 -11.6913 -1
      vertex -5.16623 -12.4724 -1
    endloop
  endfacet
  facet normal -0.32144 -0.94693 0
    outer loop
      vertex -5.16623 -12.4724 -1
      vertex -3.49406 -13.04 1
      vertex -5.16623 -12.4724 1
    endloop
  endfacet
  facet normal -0.32144 -0.94693 -0
    outer loop
      vertex -3.49406 -13.04 1
      vertex -5.16623 -12.4724 -1
      vertex -3.49406 -13.04 -1
    endloop
  endfacet
  facet normal -0.19509 -0.980785 0
    outer loop
      vertex -3.49406 -13.04 -1
      vertex -1.7621 -13.3845 1
      vertex -3.49406 -13.04 1
    endloop
  endfacet
  facet normal -0.19509 -0.980785 -0
    outer loop
      vertex -1.7621 -13.3845 1
      vertex -3.49406 -13.04 -1
      vertex -1.7621 -13.3845 -1
    endloop
  endfacet
  facet normal -0.0654033 -0.997859 0
    outer loop
      vertex -1.7621 -13.3845 -1
      vertex -2.47991e-15 -13.5 1
      vertex -1.7621 -13.3845 1
    endloop
  endfacet
  facet normal -0.0654033 -0.997859 -0
    outer loop
      vertex -2.47991e-15 -13.5 1
      vertex -1.7621 -13.3845 -1
      vertex -2.47991e-15 -13.5 -1
    endloop
  endfacet
  facet normal 0.0654033 -0.997859 0
    outer loop
      vertex -2.47991e-15 -13.5 -1
      vertex 1.7621 -13.3845 1
      vertex -2.47991e-15 -13.5 1
    endloop
  endfacet
  facet normal 0.0654033 -0.997859 0
    outer loop
      vertex 1.7621 -13.3845 1
      vertex -2.47991e-15 -13.5 -1
      vertex 1.7621 -13.3845 -1
    endloop
  endfacet
  facet normal 0.19509 -0.980785 0
    outer loop
      vertex 1.7621 -13.3845 -1
      vertex 3.49406 -13.04 1
      vertex 1.7621 -13.3845 1
    endloop
  endfacet
  facet normal 0.19509 -0.980785 0
    outer loop
      vertex 3.49406 -13.04 1
      vertex 1.7621 -13.3845 -1
      vertex 3.49406 -13.04 -1
    endloop
  endfacet
  facet normal 0.32144 -0.94693 0
    outer loop
      vertex 3.49406 -13.04 -1
      vertex 5.16623 -12.4724 1
      vertex 3.49406 -13.04 1
    endloop
  endfacet
  facet normal 0.32144 -0.94693 0
    outer loop
      vertex 5.16623 -12.4724 1
      vertex 3.49406 -13.04 -1
      vertex 5.16623 -12.4724 -1
    endloop
  endfacet
  facet normal 0.442289 -0.896873 0
    outer loop
      vertex 5.16623 -12.4724 -1
      vertex 6.75 -11.6913 1
      vertex 5.16623 -12.4724 1
    endloop
  endfacet
  facet normal 0.442289 -0.896873 0
    outer loop
      vertex 6.75 -11.6913 1
      vertex 5.16623 -12.4724 -1
      vertex 6.75 -11.6913 -1
    endloop
  endfacet
  facet normal 0.555571 -0.831469 0
    outer loop
      vertex 6.75 -11.6913 -1
      vertex 8.21828 -10.7103 1
      vertex 6.75 -11.6913 1
    endloop
  endfacet
  facet normal 0.555571 -0.831469 0
    outer loop
      vertex 8.21828 -10.7103 1
      vertex 6.75 -11.6913 -1
      vertex 8.21828 -10.7103 -1
    endloop
  endfacet
  facet normal 0.659346 -0.75184 0
    outer loop
      vertex 8.21828 -10.7103 -1
      vertex 9.54594 -9.54594 1
      vertex 8.21828 -10.7103 1
    endloop
  endfacet
  facet normal 0.659346 -0.75184 0
    outer loop
      vertex 9.54594 -9.54594 1
      vertex 8.21828 -10.7103 -1
      vertex 9.54594 -9.54594 -1
    endloop
  endfacet
  facet normal 0.75184 -0.659346 0
    outer loop
      vertex 9.54594 -9.54594 1
      vertex 10.7103 -8.21828 -1
      vertex 10.7103 -8.21828 1
    endloop
  endfacet
  facet normal 0.75184 -0.659346 0
    outer loop
      vertex 10.7103 -8.21828 -1
      vertex 9.54594 -9.54594 1
      vertex 9.54594 -9.54594 -1
    endloop
  endfacet
  facet normal 0.831469 -0.555571 0
    outer loop
      vertex 10.7103 -8.21828 1
      vertex 11.6913 -6.75 -1
      vertex 11.6913 -6.75 1
    endloop
  endfacet
  facet normal 0.831469 -0.555571 0
    outer loop
      vertex 11.6913 -6.75 -1
      vertex 10.7103 -8.21828 1
      vertex 10.7103 -8.21828 -1
    endloop
  endfacet
  facet normal 0.896873 -0.442289 0
    outer loop
      vertex 11.6913 -6.75 1
      vertex 12.4724 -5.16623 -1
      vertex 12.4724 -5.16623 1
    endloop
  endfacet
  facet normal 0.896873 -0.442289 0
    outer loop
      vertex 12.4724 -5.16623 -1
      vertex 11.6913 -6.75 1
      vertex 11.6913 -6.75 -1
    endloop
  endfacet
  facet normal 0.94693 -0.32144 0
    outer loop
      vertex 12.4724 -5.16623 1
      vertex 13.04 -3.49406 -1
      vertex 13.04 -3.49406 1
    endloop
  endfacet
  facet normal 0.94693 -0.32144 0
    outer loop
      vertex 13.04 -3.49406 -1
      vertex 12.4724 -5.16623 1
      vertex 12.4724 -5.16623 -1
    endloop
  endfacet
  facet normal 0.980785 -0.19509 0
    outer loop
      vertex 13.04 -3.49406 1
      vertex 13.3845 -1.7621 -1
      vertex 13.3845 -1.7621 1
    endloop
  endfacet
  facet normal 0.980785 -0.19509 0
    outer loop
      vertex 13.3845 -1.7621 -1
      vertex 13.04 -3.49406 1
      vertex 13.04 -3.49406 -1
    endloop
  endfacet
  facet normal 0.997859 -0.0654033 0
    outer loop
      vertex 13.3845 -1.7621 1
      vertex 13.5 0 -1
      vertex 13.5 0 1
    endloop
  endfacet
  facet normal 0.997859 -0.0654033 0
    outer loop
      vertex 13.5 0 -1
      vertex 13.3845 -1.7621 1
      vertex 13.3845 -1.7621 -1
    endloop
  endfacet
  facet normal 0 0 -1
    outer loop
      vertex 13.3845 -1.7621 -1
      vertex 13.3845 1.7621 -1
      vertex 13.5 0 -1
    endloop
  endfacet
  facet normal 0 0 -1
    outer loop
      vertex 13.04 -3.49406 -1
      vertex 13.3845 1.7621 -1
      vertex 13.3845 -1.7621 -1
    endloop
  endfacet
  facet normal 0 0 -1
    outer loop
      vertex 13.04 -3.49406 -1
      vertex 13.04 3.49406 -1
      vertex 13.3845 1.7621 -1
    endloop
  endfacet
  facet normal 0 0 -1
    outer loop
      vertex 12.4724 -5.16623 -1
      vertex 13.04 3.49406 -1
      vertex 13.04 -3.49406 -1
    endloop
  endfacet
  facet normal 0 0 -1
    outer loop
      vertex 12.4724 -5.16623 -1
      vertex 12.4724 5.16623 -1
      vertex 13.04 3.49406 -1
    endloop
  endfacet
  facet normal 0 0 -1
    outer loop
      vertex 11.6913 -6.75 -1
      vertex 12.4724 5.16623 -1
      vertex 12.4724 -5.16623 -1
    endloop
  endfacet
  facet normal 0 0 -1
    outer loop
      vertex 11.6913 -6.75 -1
      vertex 11.6913 6.75 -1
      vertex 12.4724 5.16623 -1
    endloop
  endfacet
  facet normal 0 0 -1
    outer loop
      vertex 10.7103 -8.21828 -1
      vertex 11.6913 6.75 -1
      vertex 11.6913 -6.75 -1
    endloop
  endfacet
  facet normal 0 0 -1
    outer loop
      vertex 10.7103 -8.21828 -1
      vertex 10.7103 8.21828 -1
      vertex 11.6913 6.75 -1
    endloop
  endfacet
  facet normal 0 0 -1
    outer loop
      vertex 9.54594 -9.54594 -1
      vertex 10.7103 8.21828 -1
      vertex 10.7103 -8.21828 -1
    endloop
  endfacet
  facet normal 0 0 -1
    outer loop
      vertex 9.54594 -9.54594 -1
      vertex 9.54594 9.54594 -1
      vertex 10.7103 8.21828 -1
    endloop
  endfacet
  facet normal 0 0 -1
    outer loop
      vertex 8.21828 -10.7103 -1
      vertex 9.54594 9.54594 -1
      vertex 9.54594 -9.54594 -1
    endloop
  endfacet
  facet normal 0 0 -1
    outer loop
      vertex 8.21828 -10.7103 -1
      vertex 8.21828 10.7103 -1
      vertex 9.54594 9.54594 -1
    endloop
  endfacet
  facet normal 0 0 -1
    outer loop
      vertex 6.75 -11.6913 -1
      vertex 8.21828 10.7103 -1
      vertex 8.21828 -10.7103 -1
    endloop
  endfacet
  facet normal 0 0 -1
    outer loop
      vertex 6.75 -11.6913 -1
      vertex 6.75 11.6913 -1
      vertex 8.21828 10.7103 -1
    endloop
  endfacet
  facet normal 0 0 -1
    outer loop
      vertex 5.16623 -12.4724 -1
      vertex 6.75 11.6913 -1
      vertex 6.75 -11.6913 -1
    endloop
  endfacet
  facet normal 0 0 -1
    outer loop
      vertex 5.16623 -12.4724 -1
      vertex 5.16623 12.4724 -1
      vertex 6.75 11.6913 -1
    endloop
  endfacet
  facet normal 0 0 -1
    outer loop
      vertex 3.49406 -13.04 -1
      vertex 5.16623 12.4724 -1
      vertex 5.16623 -12.4724 -1
    endloop
  endfacet
  facet normal 0 0 -1
    outer loop
      vertex 3.49406 -13.04 -1
      vertex 3.49406 13.04 -1
      vertex 5.16623 12.4724 -1
    endloop
  endfacet
  facet normal 0 0 -1
    outer loop
      vertex 1.7621 -13.3845 -1
      vertex 3.49406 13.04 -1
      vertex 3.49406 -13.04 -1
    endloop
  endfacet
  facet normal 0 0 -1
    outer loop
      vertex 1.7621 -13.3845 -1
      vertex 1.7621 13.3845 -1
      vertex 3.49406 13.04 -1
    endloop
  endfacet
  facet normal 0 0 -1
    outer loop
      vertex 1.7621 -13.3845 -1
      vertex 8.26637e-16 13.5 -1
      vertex 1.7621 13.3845 -1
    endloop
  endfacet
  facet normal 0 0 -1
    outer loop
      vertex -2.47991e-15 -13.5 -1
      vertex 8.26637e-16 13.5 -1
      vertex 1.7621 -13.3845 -1
    endloop
  endfacet
  facet normal 0 0 -1
    outer loop
      vertex -1.7621 -13.3845 -1
      vertex 8.26637e-16 13.5 -1
      vertex -2.47991e-15 -13.5 -1
    endloop
  endfacet
  facet normal 0 0 -1
    outer loop
      vertex -1.7621 -13.3845 -1
      vertex -1.7621 13.3845 -1
      vertex 8.26637e-16 13.5 -1
    endloop
  endfacet
  facet normal 0 0 -1
    outer loop
      vertex -3.49406 -13.04 -1
      vertex -1.7621 13.3845 -1
      vertex -1.7621 -13.3845 -1
    endloop
  endfacet
  facet normal 0 0 -1
    outer loop
      vertex -3.49406 -13.04 -1
      vertex -3.49406 13.04 -1
      vertex -1.7621 13.3845 -1
    endloop
  endfacet
  facet normal 0 0 -1
    outer loop
      vertex -5.16623 -12.4724 -1
      vertex -3.49406 13.04 -1
      vertex -3.49406 -13.04 -1
    endloop
  endfacet
  facet normal 0 0 -1
    outer loop
      vertex -5.16623 -12.4724 -1
      vertex -5.16623 12.4724 -1
      vertex -3.49406 13.04 -1
    endloop
  endfacet
  facet normal 0 0 -1
    outer loop
      vertex -6.75 -11.6913 -1
      vertex -5.16623 12.4724 -1
      vertex -5.16623 -12.4724 -1
    endloop
  endfacet
  facet normal 0 0 -1
    outer loop
      vertex -6.75 -11.6913 -1
      vertex -6.75 11.6913 -1
      vertex -5.16623 12.4724 -1
    endloop
  endfacet
  facet normal 0 0 -1
    outer loop
      vertex -8.21828 -10.7103 -1
      vertex -6.75 11.6913 -1
      vertex -6.75 -11.6913 -1
    endloop
  endfacet
  facet normal 0 0 -1
    outer loop
      vertex -8.21828 -10.7103 -1
      vertex -8.21828 10.7103 -1
      vertex -6.75 11.6913 -1
    endloop
  endfacet
  facet normal 0 0 -1
    outer loop
      vertex -9.54594 -9.54594 -1
      vertex -8.21828 10.7103 -1
      vertex -8.21828 -10.7103 -1
    endloop
  endfacet
  facet normal 0 0 -1
    outer loop
      vertex -9.54594 -9.54594 -1
      vertex -9.54594 9.54594 -1
      vertex -8.21828 10.7103 -1
    endloop
  endfacet
  facet normal 0 0 -1
    outer loop
      vertex -10.7103 -8.21828 -1
      vertex -9.54594 9.54594 -1
      vertex -9.54594 -9.54594 -1
    endloop
  endfacet
  facet normal 0 0 -1
    outer loop
      vertex -10.7103 -8.21828 -1
      vertex -10.7103 8.21828 -1
      vertex -9.54594 9.54594 -1
    endloop
  endfacet
  facet normal 0 0 -1
    outer loop
      vertex -11.6913 -6.75 -1
      vertex -10.7103 8.21828 -1
      vertex -10.7103 -8.21828 -1
    endloop
  endfacet
  facet normal 0 0 -1
    outer loop
      vertex -11.6913 -6.75 -1
      vertex -11.6913 6.75 -1
      vertex -10.7103 8.21828 -1
    endloop
  endfacet
  facet normal 0 0 -1
    outer loop
      vertex -12.4724 -5.16623 -1
      vertex -11.6913 6.75 -1
      vertex -11.6913 -6.75 -1
    endloop
  endfacet
  facet normal 0 0 -1
    outer loop
      vertex -12.4724 -5.16623 -1
      vertex -12.4724 5.16623 -1
      vertex -11.6913 6.75 -1
    endloop
  endfacet
  facet normal 0 0 -1
    outer loop
      vertex -13.04 -3.49406 -1
      vertex -12.4724 5.16623 -1
      vertex -12.4724 -5.16623 -1
    endloop
  endfacet
  facet normal 0 0 -1
    outer loop
      vertex -13.04 -3.49406 -1
      vertex -13.04 3.49406 -1
      vertex -12.4724 5.16623 -1
    endloop
  endfacet
  facet normal 0 0 -1
    outer loop
      vertex -13.3845 -1.7621 -1
      vertex -13.04 3.49406 -1
      vertex -13.04 -3.49406 -1
    endloop
  endfacet
  facet normal 0 0 -1
    outer loop
      vertex -13.3845 -1.7621 -1
      vertex -13.3845 1.7621 -1
      vertex -13.04 3.49406 -1
    endloop
  endfacet
  facet normal 0 -0 -1
    outer loop
      vertex -13.3845 1.7621 -1
      vertex -13.3845 -1.7621 -1
      vertex -13.5 1.65327e-15 -1
    endloop
  endfacet
  facet normal 0 0 1
    outer loop
      vertex 13.3845 1.7621 1
      vertex 13.3845 -1.7621 1
      vertex 13.5 0 1
    endloop
  endfacet
  facet normal 0 0 1
    outer loop
      vertex 13.04 3.49406 1
      vertex 13.3845 -1.7621 1
      vertex 13.3845 1.7621 1
    endloop
  endfacet
  facet normal 0 0 1
    outer loop
      vertex 13.04 3.49406 1
      vertex 13.04 -3.49406 1
      vertex 13.3845 -1.7621 1
    endloop
  endfacet
  facet normal 0 0 1
    outer loop
      vertex 12.4724 5.16623 1
      vertex 13.04 -3.49406 1
      vertex 13.04 3.49406 1
    endloop
  endfacet
  facet normal 0 0 1
    outer loop
      vertex 12.4724 5.16623 1
      vertex 12.4724 -5.16623 1
      vertex 13.04 -3.49406 1
    endloop
  endfacet
  facet normal 0 0 1
    outer loop
      vertex 11.6913 6.75 1
      vertex 12.4724 -5.16623 1
      vertex 12.4724 5.16623 1
    endloop
  endfacet
  facet normal 0 0 1
    outer loop
      vertex 11.6913 6.75 1
      vertex 11.6913 -6.75 1
      vertex 12.4724 -5.16623 1
    endloop
  endfacet
  facet normal 0 0 1
    outer loop
      vertex 10.7103 8.21828 1
      vertex 11.6913 -6.75 1
      vertex 11.6913 6.75 1
    endloop
  endfacet
  facet normal 0 0 1
    outer loop
      vertex 10.7103 8.21828 1
      vertex 10.7103 -8.21828 1
      vertex 11.6913 -6.75 1
    endloop
  endfacet
  facet normal 0 0 1
    outer loop
      vertex 9.54594 9.54594 1
      vertex 10.7103 -8.21828 1
      vertex 10.7103 8.21828 1
    endloop
  endfacet
  facet normal 0 0 1
    outer loop
      vertex 9.54594 9.54594 1
      vertex 9.54594 -9.54594 1
      vertex 10.7103 -8.21828 1
    endloop
  endfacet
  facet normal 0 0 1
    outer loop
      vertex 8.21828 10.7103 1
      vertex 9.54594 -9.54594 1
      vertex 9.54594 9.54594 1
    endloop
  endfacet
  facet normal 0 0 1
    outer loop
      vertex 8.21828 10.7103 1
      vertex 8.21828 -10.7103 1
      vertex 9.54594 -9.54594 1
    endloop
  endfacet
  facet normal 0 0 1
    outer loop
      vertex 6.75 11.6913 1
      vertex 8.21828 -10.7103 1
      vertex 8.21828 10.7103 1
    endloop
  endfacet
  facet normal 0 0 1
    outer loop
      vertex 6.75 11.6913 1
      vertex 6.75 -11.6913 1
      vertex 8.21828 -10.7103 1
    endloop
  endfacet
  facet normal 0 0 1
    outer loop
      vertex 5.16623 12.4724 1
      vertex 6.75 -11.6913 1
      vertex 6.75 11.6913 1
    endloop
  endfacet
  facet normal 0 0 1
    outer loop
      vertex 5.16623 12.4724 1
      vertex 5.16623 -12.4724 1
      vertex 6.75 -11.6913 1
    endloop
  endfacet
  facet normal 0 0 1
    outer loop
      vertex 3.49406 13.04 1
      vertex 5.16623 -12.4724 1
      vertex 5.16623 12.4724 1
    endloop
  endfacet
  facet normal 0 0 1
    outer loop
      vertex 3.49406 13.04 1
      vertex 3.49406 -13.04 1
      vertex 5.16623 -12.4724 1
    endloop
  endfacet
  facet normal 0 0 1
    outer loop
      vertex 1.7621 13.3845 1
      vertex 3.49406 -13.04 1
      vertex 3.49406 13.04 1
    endloop
  endfacet
  facet normal 0 0 1
    outer loop
      vertex 1.7621 13.3845 1
      vertex 1.7621 -13.3845 1
      vertex 3.49406 -13.04 1
    endloop
  endfacet
  facet normal 0 0 1
    outer loop
      vertex 8.26637e-16 13.5 1
      vertex 1.7621 -13.3845 1
      vertex 1.7621 13.3845 1
    endloop
  endfacet
  facet normal 0 0 1
    outer loop
      vertex 8.26637e-16 13.5 1
      vertex -2.47991e-15 -13.5 1
      vertex 1.7621 -13.3845 1
    endloop
  endfacet
  facet normal -0 0 1
    outer loop
      vertex -1.7621 13.3845 1
      vertex -2.47991e-15 -13.5 1
      vertex 8.26637e-16 13.5 1
    endloop
  endfacet
  facet normal 0 0 1
    outer loop
      vertex -1.7621 13.3845 1
      vertex -1.7621 -13.3845 1
      vertex -2.47991e-15 -13.5 1
    endloop
  endfacet
  facet normal -0 0 1
    outer loop
      vertex -3.49406 13.04 1
      vertex -1.7621 -13.3845 1
      vertex -1.7621 13.3845 1
    endloop
  endfacet
  facet normal 0 0 1
    outer loop
      vertex -3.49406 13.04 1
      vertex -3.49406 -13.04 1
      vertex -1.7621 -13.3845 1
    endloop
  endfacet
  facet normal -0 0 1
    outer loop
      vertex -5.16623 12.4724 1
      vertex -3.49406 -13.04 1
      vertex -3.49406 13.04 1
    endloop
  endfacet
  facet normal 0 0 1
    outer loop
      vertex -5.16623 12.4724 1
      vertex -5.16623 -12.4724 1
      vertex -3.49406 -13.04 1
    endloop
  endfacet
  facet normal -0 0 1
    outer loop
      vertex -6.75 11.6913 1
      vertex -5.16623 -12.4724 1
      vertex -5.16623 12.4724 1
    endloop
  endfacet
  facet normal 0 0 1
    outer loop
      vertex -6.75 11.6913 1
      vertex -6.75 -11.6913 1
      vertex -5.16623 -12.4724 1
    endloop
  endfacet
  facet normal -0 0 1
    outer loop
      vertex -8.21828 10.7103 1
      vertex -6.75 -11.6913 1
      vertex -6.75 11.6913 1
    endloop
  endfacet
  facet normal 0 0 1
    outer loop
      vertex -8.21828 10.7103 1
      vertex -8.21828 -10.7103 1
      vertex -6.75 -11.6913 1
    endloop
  endfacet
  facet normal -0 0 1
    outer loop
      vertex -9.54594 9.54594 1
      vertex -8.21828 -10.7103 1
      vertex -8.21828 10.7103 1
    endloop
  endfacet
  facet normal 0 0 1
    outer loop
      vertex -9.54594 9.54594 1
      vertex -9.54594 -9.54594 1
      vertex -8.21828 -10.7103 1
    endloop
  endfacet
  facet normal -0 0 1
    outer loop
      vertex -10.7103 8.21828 1
      vertex -9.54594 -9.54594 1
      vertex -9.54594 9.54594 1
    endloop
  endfacet
  facet normal 0 0 1
    outer loop
      vertex -10.7103 8.21828 1
      vertex -10.7103 -8.21828 1
      vertex -9.54594 -9.54594 1
    endloop
  endfacet
  facet normal -0 0 1
    outer loop
      vertex -11.6913 6.75 1
      vertex -10.7103 -8.21828 1
      vertex -10.7103 8.21828 1
    endloop
  endfacet
  facet normal 0 0 1
    outer loop
      vertex -11.6913 6.75 1
      vertex -11.6913 -6.75 1
      vertex -10.7103 -8.21828 1
    endloop
  endfacet
  facet normal -0 0 1
    outer loop
      vertex -12.4724 5.16623 1
      vertex -11.6913 -6.75 1
      vertex -11.6913 6.75 1
    endloop
  endfacet
  facet normal 0 0 1
    outer loop
      vertex -12.4724 5.16623 1
      vertex -12.4724 -5.16623 1
      vertex -11.6913 -6.75 1
    endloop
  endfacet
  facet normal -0 0 1
    outer loop
      vertex -13.04 3.49406 1
      vertex -12.4724 -5.16623 1
      vertex -12.4724 5.16623 1
    endloop
  endfacet
  facet normal 0 0 1
    outer loop
      vertex -13.04 3.49406 1
      vertex -13.04 -3.49406 1
      vertex -12.4724 -5.16623 1
    endloop
  endfacet
  facet normal -0 0 1
    outer loop
      vertex -13.3845 1.7621 1
      vertex -13.04 -3.49406 1
      vertex -13.04 3.49406 1
    endloop
  endfacet
  facet normal 0 0 1
    outer loop
      vertex -13.3845 1.7621 1
      vertex -13.3845 -1.7621 1
      vertex -13.04 -3.49406 1
    endloop
  endfacet
  facet normal 0 -0 1
    outer loop
      vertex -13.3845 -1.7621 1
      vertex -13.3845 1.7621 1
      vertex -13.5 1.65327e-15 1
    endloop
  endfacet
endsolid OpenSCAD_Model
